G04 #@! TF.FileFunction,Soldermask,Top*
%FSLAX46Y46*%
G04 Gerber Fmt 4.6, Leading zero omitted, Abs format (unit mm)*
G04 Created by KiCad (PCBNEW 4.0.6) date 06/19/17 18:14:00*
%MOMM*%
%LPD*%
G01*
G04 APERTURE LIST*
%ADD10C,0.100000*%
%ADD11C,1.600000*%
%ADD12O,1.600000X1.600000*%
%ADD13R,1.850000X1.850000*%
%ADD14C,1.850000*%
%ADD15C,1.000000*%
%ADD16R,1.000000X1.000000*%
%ADD17C,1.400000*%
%ADD18O,1.400000X1.400000*%
%ADD19O,1.727200X2.032000*%
%ADD20C,5.000000*%
G04 APERTURE END LIST*
D10*
D11*
X130830000Y-101420000D03*
D12*
X138330000Y-101420000D03*
D11*
X130830000Y-92022000D03*
D12*
X138330000Y-92022000D03*
D13*
X155700000Y-91800000D03*
D14*
X155700000Y-89300000D03*
X155700000Y-86800000D03*
D13*
X155600000Y-116000000D03*
D14*
X155600000Y-113500000D03*
X155600000Y-111000000D03*
X155600000Y-108500000D03*
D13*
X111272000Y-127328000D03*
D14*
X108772000Y-127328000D03*
X106272000Y-127328000D03*
X103772000Y-127328000D03*
D15*
X145830000Y-116330000D03*
X147100000Y-115060000D03*
D16*
X147100000Y-117600000D03*
D15*
X145830000Y-107330000D03*
X147100000Y-106060000D03*
D16*
X147100000Y-108600000D03*
D17*
X149829200Y-87881800D03*
D18*
X142209200Y-87881800D03*
D17*
X142260000Y-84148000D03*
D18*
X149880000Y-84148000D03*
D17*
X141498000Y-115821800D03*
D18*
X133878000Y-115821800D03*
D17*
X143149000Y-122070200D03*
D18*
X150769000Y-122070200D03*
D17*
X149829200Y-91920400D03*
D18*
X142209200Y-91920400D03*
D17*
X142260000Y-95578000D03*
D18*
X149880000Y-95578000D03*
D17*
X141650400Y-107287400D03*
D18*
X134030400Y-107287400D03*
D17*
X137688000Y-112088000D03*
D18*
X145308000Y-112088000D03*
D19*
X115500000Y-86800000D03*
X112960000Y-86800000D03*
X110420000Y-86800000D03*
X107880000Y-86800000D03*
X105340000Y-86800000D03*
X102800000Y-86800000D03*
X100260000Y-86800000D03*
X97720000Y-86800000D03*
X95180000Y-86800000D03*
X92640000Y-86800000D03*
X90100000Y-86800000D03*
X87560000Y-86800000D03*
X85020000Y-86800000D03*
X82480000Y-86800000D03*
X79940000Y-86800000D03*
X115500000Y-114740000D03*
X85020000Y-114740000D03*
X82480000Y-114740000D03*
X87560000Y-114740000D03*
X102800000Y-114740000D03*
X105340000Y-114740000D03*
X100260000Y-114740000D03*
X79940000Y-114740000D03*
X95180000Y-114740000D03*
X97720000Y-114740000D03*
X92640000Y-114740000D03*
X90100000Y-114740000D03*
X110420000Y-114740000D03*
X107880000Y-114740000D03*
X112960000Y-114740000D03*
D20*
X93600000Y-123400000D03*
X93500000Y-79500000D03*
X136600000Y-79600000D03*
X136600000Y-123400000D03*
X75700000Y-100700000D03*
X154600000Y-101100000D03*
M02*
