M48
;DRILL file {KiCad 4.0.6} date 06/19/17 18:14:10
;FORMAT={-:-/ absolute / inch / decimal}
FMAT,2
INCH,TZ
T1C0.024
T2C0.028
T3C0.031
T4C0.035
T5C0.040
T6C0.098
%
G90
G05
M72
T1
X5.7413Y-4.2256
X5.7413Y-4.5799
X5.7913Y-4.1756
X5.7913Y-4.2756
X5.7913Y-4.5299
X5.7913Y-4.6299
T2
X5.2708Y-4.5599
X5.2768Y-4.2239
X5.4208Y-4.4129
X5.5708Y-4.5599
X5.5768Y-4.2239
X5.5988Y-3.4599
X5.5988Y-3.6189
X5.6008Y-3.3129
X5.6008Y-3.7629
X5.6358Y-4.8059
X5.7208Y-4.4129
X5.8988Y-3.4599
X5.8988Y-3.6189
X5.9008Y-3.3129
X5.9008Y-3.7629
X5.9358Y-4.8059
T3
X5.1508Y-3.6229
X5.1508Y-3.9929
X5.4461Y-3.6229
X5.4461Y-3.9929
T4
X4.0855Y-5.0129
X4.1839Y-5.0129
X4.2824Y-5.0129
X4.3808Y-5.0129
X6.126Y-4.2717
X6.126Y-4.3701
X6.126Y-4.4685
X6.126Y-4.5669
X6.1299Y-3.4173
X6.1299Y-3.5157
X6.1299Y-3.6142
T5
X3.1472Y-3.4173
X3.1472Y-4.5173
X3.2472Y-3.4173
X3.2472Y-4.5173
X3.3472Y-3.4173
X3.3472Y-4.5173
X3.4472Y-3.4173
X3.4472Y-4.5173
X3.5472Y-3.4173
X3.5472Y-4.5173
X3.6472Y-3.4173
X3.6472Y-4.5173
X3.7472Y-3.4173
X3.7472Y-4.5173
X3.8472Y-3.4173
X3.8472Y-4.5173
X3.9472Y-3.4173
X3.9472Y-4.5173
X4.0472Y-3.4173
X4.0472Y-4.5173
X4.1472Y-3.4173
X4.1472Y-4.5173
X4.2472Y-3.4173
X4.2472Y-4.5173
X4.3472Y-3.4173
X4.3472Y-4.5173
X4.4472Y-3.4173
X4.4472Y-4.5173
X4.5472Y-3.4173
X4.5472Y-4.5173
T6
X2.9803Y-3.9646
X3.6811Y-3.1299
X3.685Y-4.8583
X5.378Y-3.1339
X5.378Y-4.8583
X6.0866Y-3.9803
T0
M30
