G04 #@! TF.FileFunction,Copper,L2,Bot,Signal*
%FSLAX46Y46*%
G04 Gerber Fmt 4.6, Leading zero omitted, Abs format (unit mm)*
G04 Created by KiCad (PCBNEW 4.0.6) date 06/19/17 18:14:00*
%MOMM*%
%LPD*%
G01*
G04 APERTURE LIST*
%ADD10C,0.100000*%
%ADD11C,1.600000*%
%ADD12O,1.600000X1.600000*%
%ADD13R,1.850000X1.850000*%
%ADD14C,1.850000*%
%ADD15C,1.000000*%
%ADD16R,1.000000X1.000000*%
%ADD17C,1.400000*%
%ADD18O,1.400000X1.400000*%
%ADD19O,1.727200X2.032000*%
%ADD20C,5.000000*%
%ADD21C,0.250000*%
%ADD22C,0.254000*%
G04 APERTURE END LIST*
D10*
D11*
X130830000Y-101420000D03*
D12*
X138330000Y-101420000D03*
D11*
X130830000Y-92022000D03*
D12*
X138330000Y-92022000D03*
D13*
X155700000Y-91800000D03*
D14*
X155700000Y-89300000D03*
X155700000Y-86800000D03*
D13*
X155600000Y-116000000D03*
D14*
X155600000Y-113500000D03*
X155600000Y-111000000D03*
X155600000Y-108500000D03*
D13*
X111272000Y-127328000D03*
D14*
X108772000Y-127328000D03*
X106272000Y-127328000D03*
X103772000Y-127328000D03*
D15*
X145830000Y-116330000D03*
X147100000Y-115060000D03*
D16*
X147100000Y-117600000D03*
D15*
X145830000Y-107330000D03*
X147100000Y-106060000D03*
D16*
X147100000Y-108600000D03*
D17*
X149829200Y-87881800D03*
D18*
X142209200Y-87881800D03*
D17*
X142260000Y-84148000D03*
D18*
X149880000Y-84148000D03*
D17*
X141498000Y-115821800D03*
D18*
X133878000Y-115821800D03*
D17*
X143149000Y-122070200D03*
D18*
X150769000Y-122070200D03*
D17*
X149829200Y-91920400D03*
D18*
X142209200Y-91920400D03*
D17*
X142260000Y-95578000D03*
D18*
X149880000Y-95578000D03*
D17*
X141650400Y-107287400D03*
D18*
X134030400Y-107287400D03*
D17*
X137688000Y-112088000D03*
D18*
X145308000Y-112088000D03*
D19*
X115500000Y-86800000D03*
X112960000Y-86800000D03*
X110420000Y-86800000D03*
X107880000Y-86800000D03*
X105340000Y-86800000D03*
X102800000Y-86800000D03*
X100260000Y-86800000D03*
X97720000Y-86800000D03*
X95180000Y-86800000D03*
X92640000Y-86800000D03*
X90100000Y-86800000D03*
X87560000Y-86800000D03*
X85020000Y-86800000D03*
X82480000Y-86800000D03*
X79940000Y-86800000D03*
X115500000Y-114740000D03*
X85020000Y-114740000D03*
X82480000Y-114740000D03*
X87560000Y-114740000D03*
X102800000Y-114740000D03*
X105340000Y-114740000D03*
X100260000Y-114740000D03*
X79940000Y-114740000D03*
X95180000Y-114740000D03*
X97720000Y-114740000D03*
X92640000Y-114740000D03*
X90100000Y-114740000D03*
X110420000Y-114740000D03*
X107880000Y-114740000D03*
X112960000Y-114740000D03*
D20*
X93600000Y-123400000D03*
X93500000Y-79500000D03*
X136600000Y-79600000D03*
X136600000Y-123400000D03*
X75700000Y-100700000D03*
X154600000Y-101100000D03*
D21*
X138330000Y-101420000D02*
X134386000Y-101420000D01*
X112960000Y-113194000D02*
X112960000Y-114740000D01*
X114320000Y-111834000D02*
X112960000Y-113194000D01*
X123972000Y-111834000D02*
X114320000Y-111834000D01*
X134386000Y-101420000D02*
X123972000Y-111834000D01*
X138330000Y-101420000D02*
X140482000Y-101420000D01*
X145553800Y-87881800D02*
X142209200Y-87881800D01*
X146838000Y-89166000D02*
X145553800Y-87881800D01*
X146838000Y-95064000D02*
X146838000Y-89166000D01*
X140482000Y-101420000D02*
X146838000Y-95064000D01*
X142209200Y-91920400D02*
X138431600Y-91920400D01*
X138431600Y-91920400D02*
X135536000Y-94816000D01*
X135536000Y-94816000D02*
X115844000Y-94816000D01*
X115844000Y-94816000D02*
X97720000Y-112940000D01*
X97720000Y-112940000D02*
X97720000Y-114740000D01*
X149880000Y-95578000D02*
X149880000Y-91971200D01*
X149880000Y-91971200D02*
X149829200Y-91920400D01*
X155700000Y-91800000D02*
X149949600Y-91800000D01*
X149949600Y-91800000D02*
X149829200Y-91920400D01*
X149829200Y-87881800D02*
X149829200Y-84198800D01*
X149829200Y-84198800D02*
X149880000Y-84148000D01*
X155700000Y-89300000D02*
X151247400Y-89300000D01*
X151247400Y-89300000D02*
X149829200Y-87881800D01*
X150769000Y-122070200D02*
X150769000Y-120831000D01*
X150769000Y-120831000D02*
X155600000Y-116000000D01*
X147100000Y-117600000D02*
X148940000Y-117600000D01*
X153040000Y-113500000D02*
X155600000Y-113500000D01*
X148940000Y-117600000D02*
X153040000Y-113500000D01*
X145308000Y-112088000D02*
X150896000Y-112088000D01*
X152420000Y-111072000D02*
X155528000Y-111072000D01*
X151404000Y-112088000D02*
X152420000Y-111072000D01*
X150896000Y-112088000D02*
X151404000Y-112088000D01*
X155528000Y-111072000D02*
X155600000Y-111000000D01*
X147100000Y-108600000D02*
X147200000Y-108500000D01*
X147200000Y-108500000D02*
X155600000Y-108500000D01*
X107880000Y-114740000D02*
X107880000Y-120634000D01*
X111272000Y-124026000D02*
X111272000Y-127328000D01*
X107880000Y-120634000D02*
X111272000Y-124026000D01*
X105340000Y-114740000D02*
X105340000Y-120888000D01*
X108772000Y-124320000D02*
X108772000Y-127328000D01*
X105340000Y-120888000D02*
X108772000Y-124320000D01*
X141498000Y-115821800D02*
X145321800Y-115821800D01*
X145321800Y-115821800D02*
X145830000Y-116330000D01*
X145830000Y-107330000D02*
X145787400Y-107287400D01*
X145787400Y-107287400D02*
X141650400Y-107287400D01*
X133878000Y-115821800D02*
X130499800Y-119200000D01*
X110510000Y-116660000D02*
X110510000Y-114830000D01*
X113050000Y-119200000D02*
X110510000Y-116660000D01*
X113304000Y-119200000D02*
X113050000Y-119200000D01*
X130499800Y-119200000D02*
X113304000Y-119200000D01*
X110510000Y-114830000D02*
X110420000Y-114740000D01*
X137688000Y-112088000D02*
X137688000Y-106754000D01*
X110420000Y-88122000D02*
X110420000Y-86800000D01*
X111526000Y-89228000D02*
X110420000Y-88122000D01*
X120924000Y-89228000D02*
X111526000Y-89228000D01*
X124226000Y-85926000D02*
X120924000Y-89228000D01*
X147038000Y-85926000D02*
X124226000Y-85926000D01*
X148316000Y-87204000D02*
X147038000Y-85926000D01*
X148316000Y-96126000D02*
X148316000Y-87204000D01*
X137688000Y-106754000D02*
X148316000Y-96126000D01*
X143149000Y-122070200D02*
X137688000Y-116609200D01*
X137688000Y-116609200D02*
X137688000Y-112088000D01*
X95180000Y-114740000D02*
X95180000Y-117078000D01*
X135656000Y-108913000D02*
X135656000Y-116660000D01*
X135656000Y-116660000D02*
X121940000Y-130376000D01*
X121940000Y-130376000D02*
X101112000Y-130376000D01*
X101112000Y-130376000D02*
X101112000Y-130376000D01*
X101112000Y-130376000D02*
X100858000Y-130376000D01*
X100858000Y-130376000D02*
X100604000Y-130376000D01*
X100604000Y-130376000D02*
X98318000Y-128090000D01*
X135656000Y-108913000D02*
X134030400Y-107287400D01*
X98318000Y-120216000D02*
X98318000Y-128090000D01*
X95180000Y-117078000D02*
X98318000Y-120216000D01*
D22*
G36*
X149715409Y-71621376D02*
X149813250Y-71686751D01*
X149878624Y-71784590D01*
X149928162Y-72033636D01*
X149928162Y-72033637D01*
X150689367Y-75860471D01*
X150731734Y-75962752D01*
X150791648Y-76107400D01*
X152959375Y-79351634D01*
X153148366Y-79540625D01*
X156392601Y-81708352D01*
X156532655Y-81766364D01*
X156639529Y-81810633D01*
X160466363Y-82571838D01*
X160466364Y-82571838D01*
X160715409Y-82621376D01*
X160813250Y-82686751D01*
X160878624Y-82784590D01*
X160915000Y-82967466D01*
X160915000Y-119832534D01*
X160878624Y-120015410D01*
X160813250Y-120113249D01*
X160715409Y-120178624D01*
X160466364Y-120228162D01*
X156639529Y-120989367D01*
X156567206Y-121019325D01*
X156392601Y-121091648D01*
X153148366Y-123259375D01*
X152959375Y-123448366D01*
X150791648Y-126692600D01*
X150731734Y-126837248D01*
X150689367Y-126939529D01*
X149928162Y-130766363D01*
X149928162Y-130766364D01*
X149878624Y-131015410D01*
X149813250Y-131113249D01*
X149715409Y-131178624D01*
X149532534Y-131215000D01*
X80667466Y-131215000D01*
X80484590Y-131178624D01*
X80386751Y-131113250D01*
X80321376Y-131015409D01*
X80271838Y-130766364D01*
X80271838Y-130766363D01*
X79510633Y-126939529D01*
X79480675Y-126867206D01*
X79408352Y-126692601D01*
X77623149Y-124020854D01*
X90464457Y-124020854D01*
X90940727Y-125173515D01*
X91821847Y-126056174D01*
X92973674Y-126534454D01*
X94220854Y-126535543D01*
X95373515Y-126059273D01*
X96256174Y-125178153D01*
X96734454Y-124026326D01*
X96735543Y-122779146D01*
X96259273Y-121626485D01*
X95378153Y-120743826D01*
X94226326Y-120265546D01*
X92979146Y-120264457D01*
X91826485Y-120740727D01*
X90943826Y-121621847D01*
X90465546Y-122773674D01*
X90464457Y-124020854D01*
X77623149Y-124020854D01*
X77240625Y-123448366D01*
X77051634Y-123259375D01*
X73807400Y-121091648D01*
X73662752Y-121031734D01*
X73560471Y-120989367D01*
X69733637Y-120228162D01*
X69733636Y-120228162D01*
X69484590Y-120178624D01*
X69386751Y-120113250D01*
X69321376Y-120015409D01*
X69285000Y-119832534D01*
X69285000Y-114555255D01*
X78441400Y-114555255D01*
X78441400Y-114924745D01*
X78555474Y-115498234D01*
X78880330Y-115984415D01*
X79366511Y-116309271D01*
X79940000Y-116423345D01*
X80513489Y-116309271D01*
X80999670Y-115984415D01*
X81206461Y-115674931D01*
X81577964Y-116090732D01*
X82105209Y-116344709D01*
X82120974Y-116347358D01*
X82353000Y-116226217D01*
X82353000Y-114867000D01*
X82333000Y-114867000D01*
X82333000Y-114613000D01*
X82353000Y-114613000D01*
X82353000Y-113253783D01*
X82607000Y-113253783D01*
X82607000Y-114613000D01*
X82627000Y-114613000D01*
X82627000Y-114867000D01*
X82607000Y-114867000D01*
X82607000Y-116226217D01*
X82839026Y-116347358D01*
X82854791Y-116344709D01*
X83382036Y-116090732D01*
X83753539Y-115674931D01*
X83960330Y-115984415D01*
X84446511Y-116309271D01*
X85020000Y-116423345D01*
X85593489Y-116309271D01*
X86079670Y-115984415D01*
X86290000Y-115669634D01*
X86500330Y-115984415D01*
X86986511Y-116309271D01*
X87560000Y-116423345D01*
X88133489Y-116309271D01*
X88619670Y-115984415D01*
X88830000Y-115669634D01*
X89040330Y-115984415D01*
X89526511Y-116309271D01*
X90100000Y-116423345D01*
X90673489Y-116309271D01*
X91159670Y-115984415D01*
X91370000Y-115669634D01*
X91580330Y-115984415D01*
X92066511Y-116309271D01*
X92640000Y-116423345D01*
X93213489Y-116309271D01*
X93699670Y-115984415D01*
X93910000Y-115669634D01*
X94120330Y-115984415D01*
X94420000Y-116184648D01*
X94420000Y-117078000D01*
X94477852Y-117368839D01*
X94642599Y-117615401D01*
X97558000Y-120530802D01*
X97558000Y-128090000D01*
X97615852Y-128380839D01*
X97780599Y-128627401D01*
X100066599Y-130913401D01*
X100313160Y-131078148D01*
X100604000Y-131136000D01*
X121940000Y-131136000D01*
X122230839Y-131078148D01*
X122477401Y-130913401D01*
X129369948Y-124020854D01*
X133464457Y-124020854D01*
X133940727Y-125173515D01*
X134821847Y-126056174D01*
X135973674Y-126534454D01*
X137220854Y-126535543D01*
X138373515Y-126059273D01*
X139256174Y-125178153D01*
X139734454Y-124026326D01*
X139735543Y-122779146D01*
X139259273Y-121626485D01*
X138378153Y-120743826D01*
X137226326Y-120265546D01*
X135979146Y-120264457D01*
X134826485Y-120740727D01*
X133943826Y-121621847D01*
X133465546Y-122773674D01*
X133464457Y-124020854D01*
X129369948Y-124020854D01*
X136193401Y-117197401D01*
X136358148Y-116950840D01*
X136416000Y-116660000D01*
X136416000Y-112505414D01*
X136555582Y-112843229D01*
X136928000Y-113216297D01*
X136928000Y-116609200D01*
X136985852Y-116900039D01*
X137150599Y-117146601D01*
X141814226Y-121810228D01*
X141813769Y-122334583D01*
X142016582Y-122825429D01*
X142391796Y-123201298D01*
X142882287Y-123404968D01*
X143413383Y-123405431D01*
X143904229Y-123202618D01*
X144280098Y-122827404D01*
X144483768Y-122336913D01*
X144484231Y-121805817D01*
X144281418Y-121314971D01*
X143906204Y-120939102D01*
X143415713Y-120735432D01*
X142888574Y-120734972D01*
X138448000Y-116294398D01*
X138448000Y-116086183D01*
X140162769Y-116086183D01*
X140365582Y-116577029D01*
X140740796Y-116952898D01*
X141231287Y-117156568D01*
X141762383Y-117157031D01*
X142253229Y-116954218D01*
X142626297Y-116581800D01*
X144705970Y-116581800D01*
X144867233Y-116972086D01*
X145186235Y-117291645D01*
X145603244Y-117464803D01*
X145952560Y-117465108D01*
X145952560Y-118100000D01*
X145996838Y-118335317D01*
X146135910Y-118551441D01*
X146348110Y-118696431D01*
X146600000Y-118747440D01*
X147600000Y-118747440D01*
X147835317Y-118703162D01*
X148051441Y-118564090D01*
X148190890Y-118360000D01*
X148940000Y-118360000D01*
X149230839Y-118302148D01*
X149477401Y-118137401D01*
X153354802Y-114260000D01*
X154226103Y-114260000D01*
X154276725Y-114382514D01*
X154394754Y-114500749D01*
X154223559Y-114610910D01*
X154078569Y-114823110D01*
X154027560Y-115075000D01*
X154027560Y-116497638D01*
X150231599Y-120293599D01*
X150066852Y-120540161D01*
X150009000Y-120831000D01*
X150009000Y-120985800D01*
X149798858Y-121126212D01*
X149509467Y-121559318D01*
X149407846Y-122070200D01*
X149509467Y-122581082D01*
X149798858Y-123014188D01*
X150231964Y-123303579D01*
X150742846Y-123405200D01*
X150795154Y-123405200D01*
X151306036Y-123303579D01*
X151739142Y-123014188D01*
X152028533Y-122581082D01*
X152130154Y-122070200D01*
X152028533Y-121559318D01*
X151739142Y-121126212D01*
X151624914Y-121049888D01*
X155102362Y-117572440D01*
X156525000Y-117572440D01*
X156760317Y-117528162D01*
X156976441Y-117389090D01*
X157121431Y-117176890D01*
X157172440Y-116925000D01*
X157172440Y-115075000D01*
X157128162Y-114839683D01*
X156989090Y-114623559D01*
X156807126Y-114499229D01*
X156921732Y-114384823D01*
X157159728Y-113811664D01*
X157160270Y-113191058D01*
X156923275Y-112617486D01*
X156556174Y-112249744D01*
X156921732Y-111884823D01*
X157159728Y-111311664D01*
X157160270Y-110691058D01*
X156923275Y-110117486D01*
X156556174Y-109749744D01*
X156921732Y-109384823D01*
X157159728Y-108811664D01*
X157160270Y-108191058D01*
X156923275Y-107617486D01*
X156484823Y-107178268D01*
X155911664Y-106940272D01*
X155291058Y-106939730D01*
X154717486Y-107176725D01*
X154278268Y-107615177D01*
X154226437Y-107740000D01*
X148122931Y-107740000D01*
X148064090Y-107648559D01*
X147851890Y-107503569D01*
X147600000Y-107452560D01*
X146964894Y-107452560D01*
X146965108Y-107207394D01*
X147405375Y-107176217D01*
X147673352Y-107065217D01*
X147710499Y-106850104D01*
X147100000Y-106239605D01*
X147085858Y-106253748D01*
X146906253Y-106074143D01*
X146920395Y-106060000D01*
X147279605Y-106060000D01*
X147890104Y-106670499D01*
X148105217Y-106633352D01*
X148248112Y-106205028D01*
X148216217Y-105754625D01*
X148105217Y-105486648D01*
X147890104Y-105449501D01*
X147279605Y-106060000D01*
X146920395Y-106060000D01*
X146309896Y-105449501D01*
X146094783Y-105486648D01*
X145951888Y-105914972D01*
X145971727Y-106195123D01*
X145605225Y-106194803D01*
X145187914Y-106367233D01*
X145027467Y-106527400D01*
X142778055Y-106527400D01*
X142407604Y-106156302D01*
X141917113Y-105952632D01*
X141386017Y-105952169D01*
X140895171Y-106154982D01*
X140519302Y-106530196D01*
X140315632Y-107020687D01*
X140315169Y-107551783D01*
X140517982Y-108042629D01*
X140893196Y-108418498D01*
X141383687Y-108622168D01*
X141914783Y-108622631D01*
X142405629Y-108419818D01*
X142778697Y-108047400D01*
X144942416Y-108047400D01*
X145186235Y-108291645D01*
X145603244Y-108464803D01*
X145952560Y-108465108D01*
X145952560Y-109100000D01*
X145996838Y-109335317D01*
X146135910Y-109551441D01*
X146348110Y-109696431D01*
X146600000Y-109747440D01*
X147600000Y-109747440D01*
X147835317Y-109703162D01*
X148051441Y-109564090D01*
X148196431Y-109351890D01*
X148215039Y-109260000D01*
X154226103Y-109260000D01*
X154276725Y-109382514D01*
X154643826Y-109750256D01*
X154278268Y-110115177D01*
X154196540Y-110312000D01*
X152420000Y-110312000D01*
X152129161Y-110369852D01*
X151882599Y-110534599D01*
X151089198Y-111328000D01*
X146401078Y-111328000D01*
X146278142Y-111144012D01*
X145845036Y-110854621D01*
X145334154Y-110753000D01*
X145281846Y-110753000D01*
X144770964Y-110854621D01*
X144337858Y-111144012D01*
X144048467Y-111577118D01*
X143946846Y-112088000D01*
X144048467Y-112598882D01*
X144337858Y-113031988D01*
X144770964Y-113321379D01*
X145281846Y-113423000D01*
X145334154Y-113423000D01*
X145845036Y-113321379D01*
X146278142Y-113031988D01*
X146401078Y-112848000D01*
X151404000Y-112848000D01*
X151694839Y-112790148D01*
X151941401Y-112625401D01*
X152734802Y-111832000D01*
X154255853Y-111832000D01*
X154276725Y-111882514D01*
X154643826Y-112250256D01*
X154278268Y-112615177D01*
X154226437Y-112740000D01*
X153040000Y-112740000D01*
X152749161Y-112797852D01*
X152502599Y-112962599D01*
X148625198Y-116840000D01*
X148187279Y-116840000D01*
X148064090Y-116648559D01*
X147851890Y-116503569D01*
X147600000Y-116452560D01*
X146964894Y-116452560D01*
X146965108Y-116207394D01*
X147405375Y-116176217D01*
X147673352Y-116065217D01*
X147710499Y-115850104D01*
X147100000Y-115239605D01*
X147085858Y-115253748D01*
X146906253Y-115074143D01*
X146920395Y-115060000D01*
X147279605Y-115060000D01*
X147890104Y-115670499D01*
X148105217Y-115633352D01*
X148248112Y-115205028D01*
X148216217Y-114754625D01*
X148105217Y-114486648D01*
X147890104Y-114449501D01*
X147279605Y-115060000D01*
X146920395Y-115060000D01*
X146309896Y-114449501D01*
X146094783Y-114486648D01*
X145951888Y-114914972D01*
X145971727Y-115195123D01*
X145725268Y-115194908D01*
X145612639Y-115119652D01*
X145321800Y-115061800D01*
X142625655Y-115061800D01*
X142255204Y-114690702D01*
X141764713Y-114487032D01*
X141233617Y-114486569D01*
X140742771Y-114689382D01*
X140366902Y-115064596D01*
X140163232Y-115555087D01*
X140162769Y-116086183D01*
X138448000Y-116086183D01*
X138448000Y-114269896D01*
X146489501Y-114269896D01*
X147100000Y-114880395D01*
X147710499Y-114269896D01*
X147673352Y-114054783D01*
X147245028Y-113911888D01*
X146794625Y-113943783D01*
X146526648Y-114054783D01*
X146489501Y-114269896D01*
X138448000Y-114269896D01*
X138448000Y-113215655D01*
X138819098Y-112845204D01*
X139022768Y-112354713D01*
X139023231Y-111823617D01*
X138820418Y-111332771D01*
X138448000Y-110959703D01*
X138448000Y-107068802D01*
X140246906Y-105269896D01*
X146489501Y-105269896D01*
X147100000Y-105880395D01*
X147710499Y-105269896D01*
X147673352Y-105054783D01*
X147245028Y-104911888D01*
X146794625Y-104943783D01*
X146526648Y-105054783D01*
X146489501Y-105269896D01*
X140246906Y-105269896D01*
X143795948Y-101720854D01*
X151464457Y-101720854D01*
X151940727Y-102873515D01*
X152821847Y-103756174D01*
X153973674Y-104234454D01*
X155220854Y-104235543D01*
X156373515Y-103759273D01*
X157256174Y-102878153D01*
X157734454Y-101726326D01*
X157735543Y-100479146D01*
X157259273Y-99326485D01*
X156378153Y-98443826D01*
X155226326Y-97965546D01*
X153979146Y-97964457D01*
X152826485Y-98440727D01*
X151943826Y-99321847D01*
X151465546Y-100473674D01*
X151464457Y-101720854D01*
X143795948Y-101720854D01*
X148853401Y-96663401D01*
X148936151Y-96539556D01*
X149342964Y-96811379D01*
X149853846Y-96913000D01*
X149906154Y-96913000D01*
X150417036Y-96811379D01*
X150850142Y-96521988D01*
X151139533Y-96088882D01*
X151241154Y-95578000D01*
X151139533Y-95067118D01*
X150850142Y-94634012D01*
X150640000Y-94493600D01*
X150640000Y-92997344D01*
X150960298Y-92677604D01*
X151009132Y-92560000D01*
X154127560Y-92560000D01*
X154127560Y-92725000D01*
X154171838Y-92960317D01*
X154310910Y-93176441D01*
X154523110Y-93321431D01*
X154775000Y-93372440D01*
X156625000Y-93372440D01*
X156860317Y-93328162D01*
X157076441Y-93189090D01*
X157221431Y-92976890D01*
X157272440Y-92725000D01*
X157272440Y-90875000D01*
X157228162Y-90639683D01*
X157089090Y-90423559D01*
X156907126Y-90299229D01*
X157021732Y-90184823D01*
X157259728Y-89611664D01*
X157260270Y-88991058D01*
X157023275Y-88417486D01*
X156589426Y-87982879D01*
X156618651Y-87898256D01*
X155700000Y-86979605D01*
X154781349Y-87898256D01*
X154810765Y-87983434D01*
X154378268Y-88415177D01*
X154326437Y-88540000D01*
X151562202Y-88540000D01*
X151163974Y-88141772D01*
X151164431Y-87617417D01*
X150961618Y-87126571D01*
X150589200Y-86753503D01*
X150589200Y-86553368D01*
X154128675Y-86553368D01*
X154153903Y-87173461D01*
X154342668Y-87629179D01*
X154601744Y-87718651D01*
X155520395Y-86800000D01*
X155879605Y-86800000D01*
X156798256Y-87718651D01*
X157057332Y-87629179D01*
X157271325Y-87046632D01*
X157246097Y-86426539D01*
X157057332Y-85970821D01*
X156798256Y-85881349D01*
X155879605Y-86800000D01*
X155520395Y-86800000D01*
X154601744Y-85881349D01*
X154342668Y-85970821D01*
X154128675Y-86553368D01*
X150589200Y-86553368D01*
X150589200Y-85701744D01*
X154781349Y-85701744D01*
X155700000Y-86620395D01*
X156618651Y-85701744D01*
X156529179Y-85442668D01*
X155946632Y-85228675D01*
X155326539Y-85253903D01*
X154870821Y-85442668D01*
X154781349Y-85701744D01*
X150589200Y-85701744D01*
X150589200Y-85266343D01*
X150850142Y-85091988D01*
X151139533Y-84658882D01*
X151241154Y-84148000D01*
X151139533Y-83637118D01*
X150850142Y-83204012D01*
X150417036Y-82914621D01*
X149906154Y-82813000D01*
X149853846Y-82813000D01*
X149342964Y-82914621D01*
X148909858Y-83204012D01*
X148620467Y-83637118D01*
X148518846Y-84148000D01*
X148620467Y-84658882D01*
X148909858Y-85091988D01*
X149069200Y-85198456D01*
X149069200Y-86754145D01*
X148974838Y-86848342D01*
X148853401Y-86666599D01*
X147575401Y-85388599D01*
X147328839Y-85223852D01*
X147038000Y-85166000D01*
X143129847Y-85166000D01*
X143391098Y-84905204D01*
X143594768Y-84414713D01*
X143595231Y-83883617D01*
X143392418Y-83392771D01*
X143017204Y-83016902D01*
X142526713Y-82813232D01*
X141995617Y-82812769D01*
X141504771Y-83015582D01*
X141128902Y-83390796D01*
X140925232Y-83881287D01*
X140924769Y-84412383D01*
X141127582Y-84903229D01*
X141389895Y-85166000D01*
X124226000Y-85166000D01*
X123935160Y-85223852D01*
X123688599Y-85388599D01*
X120609198Y-88468000D01*
X115577145Y-88468000D01*
X116073489Y-88369271D01*
X116559670Y-88044415D01*
X116884526Y-87558234D01*
X116998600Y-86984745D01*
X116998600Y-86615255D01*
X116884526Y-86041766D01*
X116559670Y-85555585D01*
X116073489Y-85230729D01*
X115500000Y-85116655D01*
X114926511Y-85230729D01*
X114440330Y-85555585D01*
X114230000Y-85870366D01*
X114019670Y-85555585D01*
X113533489Y-85230729D01*
X112960000Y-85116655D01*
X112386511Y-85230729D01*
X111900330Y-85555585D01*
X111690000Y-85870366D01*
X111479670Y-85555585D01*
X110993489Y-85230729D01*
X110420000Y-85116655D01*
X109846511Y-85230729D01*
X109360330Y-85555585D01*
X109150000Y-85870366D01*
X108939670Y-85555585D01*
X108453489Y-85230729D01*
X107880000Y-85116655D01*
X107306511Y-85230729D01*
X106820330Y-85555585D01*
X106610000Y-85870366D01*
X106399670Y-85555585D01*
X105913489Y-85230729D01*
X105340000Y-85116655D01*
X104766511Y-85230729D01*
X104280330Y-85555585D01*
X104070000Y-85870366D01*
X103859670Y-85555585D01*
X103373489Y-85230729D01*
X102800000Y-85116655D01*
X102226511Y-85230729D01*
X101740330Y-85555585D01*
X101530000Y-85870366D01*
X101319670Y-85555585D01*
X100833489Y-85230729D01*
X100260000Y-85116655D01*
X99686511Y-85230729D01*
X99200330Y-85555585D01*
X98993539Y-85865069D01*
X98622036Y-85449268D01*
X98094791Y-85195291D01*
X98079026Y-85192642D01*
X97847000Y-85313783D01*
X97847000Y-86673000D01*
X97867000Y-86673000D01*
X97867000Y-86927000D01*
X97847000Y-86927000D01*
X97847000Y-88286217D01*
X98079026Y-88407358D01*
X98094791Y-88404709D01*
X98622036Y-88150732D01*
X98993539Y-87734931D01*
X99200330Y-88044415D01*
X99686511Y-88369271D01*
X100260000Y-88483345D01*
X100833489Y-88369271D01*
X101319670Y-88044415D01*
X101530000Y-87729634D01*
X101740330Y-88044415D01*
X102226511Y-88369271D01*
X102800000Y-88483345D01*
X103373489Y-88369271D01*
X103859670Y-88044415D01*
X104070000Y-87729634D01*
X104280330Y-88044415D01*
X104766511Y-88369271D01*
X105340000Y-88483345D01*
X105913489Y-88369271D01*
X106399670Y-88044415D01*
X106610000Y-87729634D01*
X106820330Y-88044415D01*
X107306511Y-88369271D01*
X107880000Y-88483345D01*
X108453489Y-88369271D01*
X108939670Y-88044415D01*
X109150000Y-87729634D01*
X109360330Y-88044415D01*
X109688136Y-88263448D01*
X109717852Y-88412839D01*
X109882599Y-88659401D01*
X110988599Y-89765401D01*
X111235160Y-89930148D01*
X111526000Y-89988000D01*
X120924000Y-89988000D01*
X121214839Y-89930148D01*
X121461401Y-89765401D01*
X124540802Y-86686000D01*
X141615923Y-86686000D01*
X141239058Y-86937812D01*
X140949667Y-87370918D01*
X140848046Y-87881800D01*
X140949667Y-88392682D01*
X141239058Y-88825788D01*
X141672164Y-89115179D01*
X142183046Y-89216800D01*
X142235354Y-89216800D01*
X142746236Y-89115179D01*
X143179342Y-88825788D01*
X143302278Y-88641800D01*
X145238998Y-88641800D01*
X146078000Y-89480802D01*
X146078000Y-94749198D01*
X140167198Y-100660000D01*
X139542995Y-100660000D01*
X139372811Y-100405302D01*
X138907264Y-100094233D01*
X138358113Y-99985000D01*
X138301887Y-99985000D01*
X137752736Y-100094233D01*
X137287189Y-100405302D01*
X137117005Y-100660000D01*
X134386000Y-100660000D01*
X134095161Y-100717852D01*
X133848599Y-100882599D01*
X123657198Y-111074000D01*
X114320000Y-111074000D01*
X114077414Y-111122254D01*
X114029160Y-111131852D01*
X113782599Y-111296599D01*
X112422599Y-112656599D01*
X112257852Y-112903161D01*
X112200000Y-113194000D01*
X112200000Y-113295352D01*
X111900330Y-113495585D01*
X111690000Y-113810366D01*
X111479670Y-113495585D01*
X110993489Y-113170729D01*
X110420000Y-113056655D01*
X109846511Y-113170729D01*
X109360330Y-113495585D01*
X109150000Y-113810366D01*
X108939670Y-113495585D01*
X108453489Y-113170729D01*
X107880000Y-113056655D01*
X107306511Y-113170729D01*
X106820330Y-113495585D01*
X106610000Y-113810366D01*
X106399670Y-113495585D01*
X105913489Y-113170729D01*
X105340000Y-113056655D01*
X104766511Y-113170729D01*
X104280330Y-113495585D01*
X104070000Y-113810366D01*
X103859670Y-113495585D01*
X103373489Y-113170729D01*
X102800000Y-113056655D01*
X102226511Y-113170729D01*
X101740330Y-113495585D01*
X101533539Y-113805069D01*
X101162036Y-113389268D01*
X100634791Y-113135291D01*
X100619026Y-113132642D01*
X100387000Y-113253783D01*
X100387000Y-114613000D01*
X100407000Y-114613000D01*
X100407000Y-114867000D01*
X100387000Y-114867000D01*
X100387000Y-116226217D01*
X100619026Y-116347358D01*
X100634791Y-116344709D01*
X101162036Y-116090732D01*
X101533539Y-115674931D01*
X101740330Y-115984415D01*
X102226511Y-116309271D01*
X102800000Y-116423345D01*
X103373489Y-116309271D01*
X103859670Y-115984415D01*
X104070000Y-115669634D01*
X104280330Y-115984415D01*
X104580000Y-116184648D01*
X104580000Y-120888000D01*
X104637852Y-121178839D01*
X104802599Y-121425401D01*
X108012000Y-124634802D01*
X108012000Y-125954103D01*
X107889486Y-126004725D01*
X107454879Y-126438574D01*
X107370256Y-126409349D01*
X106451605Y-127328000D01*
X107370256Y-128246651D01*
X107455434Y-128217235D01*
X107887177Y-128649732D01*
X108460336Y-128887728D01*
X109080942Y-128888270D01*
X109654514Y-128651275D01*
X109772749Y-128533246D01*
X109882910Y-128704441D01*
X110095110Y-128849431D01*
X110347000Y-128900440D01*
X112197000Y-128900440D01*
X112432317Y-128856162D01*
X112648441Y-128717090D01*
X112793431Y-128504890D01*
X112844440Y-128253000D01*
X112844440Y-126403000D01*
X112800162Y-126167683D01*
X112661090Y-125951559D01*
X112448890Y-125806569D01*
X112197000Y-125755560D01*
X112032000Y-125755560D01*
X112032000Y-124026000D01*
X111974148Y-123735161D01*
X111974148Y-123735160D01*
X111809401Y-123488599D01*
X108640000Y-120319198D01*
X108640000Y-116184648D01*
X108939670Y-115984415D01*
X109150000Y-115669634D01*
X109360330Y-115984415D01*
X109750000Y-116244784D01*
X109750000Y-116660000D01*
X109807852Y-116950839D01*
X109972599Y-117197401D01*
X112512599Y-119737401D01*
X112759160Y-119902148D01*
X112807414Y-119911746D01*
X113050000Y-119960000D01*
X130499800Y-119960000D01*
X130790639Y-119902148D01*
X131037201Y-119737401D01*
X133656632Y-117117970D01*
X133851846Y-117156800D01*
X133904154Y-117156800D01*
X134129153Y-117112045D01*
X121625198Y-129616000D01*
X100918802Y-129616000D01*
X99078000Y-127775198D01*
X99078000Y-127636942D01*
X102211730Y-127636942D01*
X102448725Y-128210514D01*
X102887177Y-128649732D01*
X103460336Y-128887728D01*
X104080942Y-128888270D01*
X104654514Y-128651275D01*
X104879926Y-128426256D01*
X105353349Y-128426256D01*
X105442821Y-128685332D01*
X106025368Y-128899325D01*
X106645461Y-128874097D01*
X107101179Y-128685332D01*
X107190651Y-128426256D01*
X106272000Y-127507605D01*
X105353349Y-128426256D01*
X104879926Y-128426256D01*
X105089121Y-128217426D01*
X105173744Y-128246651D01*
X106092395Y-127328000D01*
X105173744Y-126409349D01*
X105088566Y-126438765D01*
X104879910Y-126229744D01*
X105353349Y-126229744D01*
X106272000Y-127148395D01*
X107190651Y-126229744D01*
X107101179Y-125970668D01*
X106518632Y-125756675D01*
X105898539Y-125781903D01*
X105442821Y-125970668D01*
X105353349Y-126229744D01*
X104879910Y-126229744D01*
X104656823Y-126006268D01*
X104083664Y-125768272D01*
X103463058Y-125767730D01*
X102889486Y-126004725D01*
X102450268Y-126443177D01*
X102212272Y-127016336D01*
X102211730Y-127636942D01*
X99078000Y-127636942D01*
X99078000Y-120216000D01*
X99020148Y-119925161D01*
X98855401Y-119678599D01*
X95940000Y-116763198D01*
X95940000Y-116184648D01*
X96239670Y-115984415D01*
X96450000Y-115669634D01*
X96660330Y-115984415D01*
X97146511Y-116309271D01*
X97720000Y-116423345D01*
X98293489Y-116309271D01*
X98779670Y-115984415D01*
X98986461Y-115674931D01*
X99357964Y-116090732D01*
X99885209Y-116344709D01*
X99900974Y-116347358D01*
X100133000Y-116226217D01*
X100133000Y-114867000D01*
X100113000Y-114867000D01*
X100113000Y-114613000D01*
X100133000Y-114613000D01*
X100133000Y-113253783D01*
X99900974Y-113132642D01*
X99885209Y-113135291D01*
X99357964Y-113389268D01*
X98986461Y-113805069D01*
X98779670Y-113495585D01*
X98480000Y-113295352D01*
X98480000Y-113254802D01*
X109307057Y-102427745D01*
X130001861Y-102427745D01*
X130075995Y-102673864D01*
X130613223Y-102866965D01*
X131183454Y-102839778D01*
X131584005Y-102673864D01*
X131658139Y-102427745D01*
X130830000Y-101599605D01*
X130001861Y-102427745D01*
X109307057Y-102427745D01*
X110531579Y-101203223D01*
X129383035Y-101203223D01*
X129410222Y-101773454D01*
X129576136Y-102174005D01*
X129822255Y-102248139D01*
X130650395Y-101420000D01*
X131009605Y-101420000D01*
X131837745Y-102248139D01*
X132083864Y-102174005D01*
X132276965Y-101636777D01*
X132249778Y-101066546D01*
X132083864Y-100665995D01*
X131837745Y-100591861D01*
X131009605Y-101420000D01*
X130650395Y-101420000D01*
X129822255Y-100591861D01*
X129576136Y-100665995D01*
X129383035Y-101203223D01*
X110531579Y-101203223D01*
X111322547Y-100412255D01*
X130001861Y-100412255D01*
X130830000Y-101240395D01*
X131658139Y-100412255D01*
X131584005Y-100166136D01*
X131046777Y-99973035D01*
X130476546Y-100000222D01*
X130075995Y-100166136D01*
X130001861Y-100412255D01*
X111322547Y-100412255D01*
X115892419Y-95842383D01*
X140924769Y-95842383D01*
X141127582Y-96333229D01*
X141502796Y-96709098D01*
X141993287Y-96912768D01*
X142524383Y-96913231D01*
X143015229Y-96710418D01*
X143391098Y-96335204D01*
X143594768Y-95844713D01*
X143595231Y-95313617D01*
X143392418Y-94822771D01*
X143017204Y-94446902D01*
X142526713Y-94243232D01*
X141995617Y-94242769D01*
X141504771Y-94445582D01*
X141128902Y-94820796D01*
X140925232Y-95311287D01*
X140924769Y-95842383D01*
X115892419Y-95842383D01*
X116158802Y-95576000D01*
X135536000Y-95576000D01*
X135826839Y-95518148D01*
X136073401Y-95353401D01*
X138024898Y-93401904D01*
X138301887Y-93457000D01*
X138358113Y-93457000D01*
X138907264Y-93347767D01*
X139372811Y-93036698D01*
X139610882Y-92680400D01*
X141116122Y-92680400D01*
X141239058Y-92864388D01*
X141672164Y-93153779D01*
X142183046Y-93255400D01*
X142235354Y-93255400D01*
X142746236Y-93153779D01*
X143179342Y-92864388D01*
X143468733Y-92431282D01*
X143570354Y-91920400D01*
X143468733Y-91409518D01*
X143179342Y-90976412D01*
X142746236Y-90687021D01*
X142235354Y-90585400D01*
X142183046Y-90585400D01*
X141672164Y-90687021D01*
X141239058Y-90976412D01*
X141116122Y-91160400D01*
X139475108Y-91160400D01*
X139372811Y-91007302D01*
X138907264Y-90696233D01*
X138358113Y-90587000D01*
X138301887Y-90587000D01*
X137752736Y-90696233D01*
X137287189Y-91007302D01*
X136976120Y-91472849D01*
X136866887Y-92022000D01*
X136931312Y-92345886D01*
X135221198Y-94056000D01*
X115844000Y-94056000D01*
X115553161Y-94113852D01*
X115306599Y-94278599D01*
X97182599Y-112402599D01*
X97017852Y-112649161D01*
X96960000Y-112940000D01*
X96960000Y-113295352D01*
X96660330Y-113495585D01*
X96450000Y-113810366D01*
X96239670Y-113495585D01*
X95753489Y-113170729D01*
X95180000Y-113056655D01*
X94606511Y-113170729D01*
X94120330Y-113495585D01*
X93910000Y-113810366D01*
X93699670Y-113495585D01*
X93213489Y-113170729D01*
X92640000Y-113056655D01*
X92066511Y-113170729D01*
X91580330Y-113495585D01*
X91370000Y-113810366D01*
X91159670Y-113495585D01*
X90673489Y-113170729D01*
X90100000Y-113056655D01*
X89526511Y-113170729D01*
X89040330Y-113495585D01*
X88830000Y-113810366D01*
X88619670Y-113495585D01*
X88133489Y-113170729D01*
X87560000Y-113056655D01*
X86986511Y-113170729D01*
X86500330Y-113495585D01*
X86290000Y-113810366D01*
X86079670Y-113495585D01*
X85593489Y-113170729D01*
X85020000Y-113056655D01*
X84446511Y-113170729D01*
X83960330Y-113495585D01*
X83753539Y-113805069D01*
X83382036Y-113389268D01*
X82854791Y-113135291D01*
X82839026Y-113132642D01*
X82607000Y-113253783D01*
X82353000Y-113253783D01*
X82120974Y-113132642D01*
X82105209Y-113135291D01*
X81577964Y-113389268D01*
X81206461Y-113805069D01*
X80999670Y-113495585D01*
X80513489Y-113170729D01*
X79940000Y-113056655D01*
X79366511Y-113170729D01*
X78880330Y-113495585D01*
X78555474Y-113981766D01*
X78441400Y-114555255D01*
X69285000Y-114555255D01*
X69285000Y-101320854D01*
X72564457Y-101320854D01*
X73040727Y-102473515D01*
X73921847Y-103356174D01*
X75073674Y-103834454D01*
X76320854Y-103835543D01*
X77473515Y-103359273D01*
X78356174Y-102478153D01*
X78834454Y-101326326D01*
X78835543Y-100079146D01*
X78359273Y-98926485D01*
X77478153Y-98043826D01*
X76326326Y-97565546D01*
X75079146Y-97564457D01*
X73926485Y-98040727D01*
X73043826Y-98921847D01*
X72565546Y-100073674D01*
X72564457Y-101320854D01*
X69285000Y-101320854D01*
X69285000Y-93029745D01*
X130001861Y-93029745D01*
X130075995Y-93275864D01*
X130613223Y-93468965D01*
X131183454Y-93441778D01*
X131584005Y-93275864D01*
X131658139Y-93029745D01*
X130830000Y-92201605D01*
X130001861Y-93029745D01*
X69285000Y-93029745D01*
X69285000Y-91805223D01*
X129383035Y-91805223D01*
X129410222Y-92375454D01*
X129576136Y-92776005D01*
X129822255Y-92850139D01*
X130650395Y-92022000D01*
X131009605Y-92022000D01*
X131837745Y-92850139D01*
X132083864Y-92776005D01*
X132276965Y-92238777D01*
X132249778Y-91668546D01*
X132083864Y-91267995D01*
X131837745Y-91193861D01*
X131009605Y-92022000D01*
X130650395Y-92022000D01*
X129822255Y-91193861D01*
X129576136Y-91267995D01*
X129383035Y-91805223D01*
X69285000Y-91805223D01*
X69285000Y-91014255D01*
X130001861Y-91014255D01*
X130830000Y-91842395D01*
X131658139Y-91014255D01*
X131584005Y-90768136D01*
X131046777Y-90575035D01*
X130476546Y-90602222D01*
X130075995Y-90768136D01*
X130001861Y-91014255D01*
X69285000Y-91014255D01*
X69285000Y-86615255D01*
X78441400Y-86615255D01*
X78441400Y-86984745D01*
X78555474Y-87558234D01*
X78880330Y-88044415D01*
X79366511Y-88369271D01*
X79940000Y-88483345D01*
X80513489Y-88369271D01*
X80999670Y-88044415D01*
X81206461Y-87734931D01*
X81577964Y-88150732D01*
X82105209Y-88404709D01*
X82120974Y-88407358D01*
X82353000Y-88286217D01*
X82353000Y-86927000D01*
X82333000Y-86927000D01*
X82333000Y-86673000D01*
X82353000Y-86673000D01*
X82353000Y-85313783D01*
X82607000Y-85313783D01*
X82607000Y-86673000D01*
X82627000Y-86673000D01*
X82627000Y-86927000D01*
X82607000Y-86927000D01*
X82607000Y-88286217D01*
X82839026Y-88407358D01*
X82854791Y-88404709D01*
X83382036Y-88150732D01*
X83753539Y-87734931D01*
X83960330Y-88044415D01*
X84446511Y-88369271D01*
X85020000Y-88483345D01*
X85593489Y-88369271D01*
X86079670Y-88044415D01*
X86290000Y-87729634D01*
X86500330Y-88044415D01*
X86986511Y-88369271D01*
X87560000Y-88483345D01*
X88133489Y-88369271D01*
X88619670Y-88044415D01*
X88830000Y-87729634D01*
X89040330Y-88044415D01*
X89526511Y-88369271D01*
X90100000Y-88483345D01*
X90673489Y-88369271D01*
X91159670Y-88044415D01*
X91366461Y-87734931D01*
X91737964Y-88150732D01*
X92265209Y-88404709D01*
X92280974Y-88407358D01*
X92513000Y-88286217D01*
X92513000Y-86927000D01*
X92493000Y-86927000D01*
X92493000Y-86673000D01*
X92513000Y-86673000D01*
X92513000Y-85313783D01*
X92767000Y-85313783D01*
X92767000Y-86673000D01*
X92787000Y-86673000D01*
X92787000Y-86927000D01*
X92767000Y-86927000D01*
X92767000Y-88286217D01*
X92999026Y-88407358D01*
X93014791Y-88404709D01*
X93542036Y-88150732D01*
X93913539Y-87734931D01*
X94120330Y-88044415D01*
X94606511Y-88369271D01*
X95180000Y-88483345D01*
X95753489Y-88369271D01*
X96239670Y-88044415D01*
X96446461Y-87734931D01*
X96817964Y-88150732D01*
X97345209Y-88404709D01*
X97360974Y-88407358D01*
X97593000Y-88286217D01*
X97593000Y-86927000D01*
X97573000Y-86927000D01*
X97573000Y-86673000D01*
X97593000Y-86673000D01*
X97593000Y-85313783D01*
X97360974Y-85192642D01*
X97345209Y-85195291D01*
X96817964Y-85449268D01*
X96446461Y-85865069D01*
X96239670Y-85555585D01*
X95753489Y-85230729D01*
X95180000Y-85116655D01*
X94606511Y-85230729D01*
X94120330Y-85555585D01*
X93913539Y-85865069D01*
X93542036Y-85449268D01*
X93014791Y-85195291D01*
X92999026Y-85192642D01*
X92767000Y-85313783D01*
X92513000Y-85313783D01*
X92280974Y-85192642D01*
X92265209Y-85195291D01*
X91737964Y-85449268D01*
X91366461Y-85865069D01*
X91159670Y-85555585D01*
X90673489Y-85230729D01*
X90100000Y-85116655D01*
X89526511Y-85230729D01*
X89040330Y-85555585D01*
X88830000Y-85870366D01*
X88619670Y-85555585D01*
X88133489Y-85230729D01*
X87560000Y-85116655D01*
X86986511Y-85230729D01*
X86500330Y-85555585D01*
X86290000Y-85870366D01*
X86079670Y-85555585D01*
X85593489Y-85230729D01*
X85020000Y-85116655D01*
X84446511Y-85230729D01*
X83960330Y-85555585D01*
X83753539Y-85865069D01*
X83382036Y-85449268D01*
X82854791Y-85195291D01*
X82839026Y-85192642D01*
X82607000Y-85313783D01*
X82353000Y-85313783D01*
X82120974Y-85192642D01*
X82105209Y-85195291D01*
X81577964Y-85449268D01*
X81206461Y-85865069D01*
X80999670Y-85555585D01*
X80513489Y-85230729D01*
X79940000Y-85116655D01*
X79366511Y-85230729D01*
X78880330Y-85555585D01*
X78555474Y-86041766D01*
X78441400Y-86615255D01*
X69285000Y-86615255D01*
X69285000Y-82967466D01*
X69321376Y-82784591D01*
X69386751Y-82686750D01*
X69484590Y-82621376D01*
X69733636Y-82571838D01*
X69733637Y-82571838D01*
X73560471Y-81810633D01*
X73667347Y-81766363D01*
X73807400Y-81708352D01*
X76183259Y-80120854D01*
X90364457Y-80120854D01*
X90840727Y-81273515D01*
X91721847Y-82156174D01*
X92873674Y-82634454D01*
X94120854Y-82635543D01*
X95273515Y-82159273D01*
X96156174Y-81278153D01*
X96595202Y-80220854D01*
X133464457Y-80220854D01*
X133940727Y-81373515D01*
X134821847Y-82256174D01*
X135973674Y-82734454D01*
X137220854Y-82735543D01*
X138373515Y-82259273D01*
X139256174Y-81378153D01*
X139734454Y-80226326D01*
X139735543Y-78979146D01*
X139259273Y-77826485D01*
X138378153Y-76943826D01*
X137226326Y-76465546D01*
X135979146Y-76464457D01*
X134826485Y-76940727D01*
X133943826Y-77821847D01*
X133465546Y-78973674D01*
X133464457Y-80220854D01*
X96595202Y-80220854D01*
X96634454Y-80126326D01*
X96635543Y-78879146D01*
X96159273Y-77726485D01*
X95278153Y-76843826D01*
X94126326Y-76365546D01*
X92879146Y-76364457D01*
X91726485Y-76840727D01*
X90843826Y-77721847D01*
X90365546Y-78873674D01*
X90364457Y-80120854D01*
X76183259Y-80120854D01*
X77051634Y-79540625D01*
X77240625Y-79351634D01*
X79408352Y-76107399D01*
X79510633Y-75860470D01*
X80271838Y-72033637D01*
X80271838Y-72033636D01*
X80321376Y-71784591D01*
X80386751Y-71686750D01*
X80484590Y-71621376D01*
X80667466Y-71585000D01*
X149532534Y-71585000D01*
X149715409Y-71621376D01*
X149715409Y-71621376D01*
G37*
X149715409Y-71621376D02*
X149813250Y-71686751D01*
X149878624Y-71784590D01*
X149928162Y-72033636D01*
X149928162Y-72033637D01*
X150689367Y-75860471D01*
X150731734Y-75962752D01*
X150791648Y-76107400D01*
X152959375Y-79351634D01*
X153148366Y-79540625D01*
X156392601Y-81708352D01*
X156532655Y-81766364D01*
X156639529Y-81810633D01*
X160466363Y-82571838D01*
X160466364Y-82571838D01*
X160715409Y-82621376D01*
X160813250Y-82686751D01*
X160878624Y-82784590D01*
X160915000Y-82967466D01*
X160915000Y-119832534D01*
X160878624Y-120015410D01*
X160813250Y-120113249D01*
X160715409Y-120178624D01*
X160466364Y-120228162D01*
X156639529Y-120989367D01*
X156567206Y-121019325D01*
X156392601Y-121091648D01*
X153148366Y-123259375D01*
X152959375Y-123448366D01*
X150791648Y-126692600D01*
X150731734Y-126837248D01*
X150689367Y-126939529D01*
X149928162Y-130766363D01*
X149928162Y-130766364D01*
X149878624Y-131015410D01*
X149813250Y-131113249D01*
X149715409Y-131178624D01*
X149532534Y-131215000D01*
X80667466Y-131215000D01*
X80484590Y-131178624D01*
X80386751Y-131113250D01*
X80321376Y-131015409D01*
X80271838Y-130766364D01*
X80271838Y-130766363D01*
X79510633Y-126939529D01*
X79480675Y-126867206D01*
X79408352Y-126692601D01*
X77623149Y-124020854D01*
X90464457Y-124020854D01*
X90940727Y-125173515D01*
X91821847Y-126056174D01*
X92973674Y-126534454D01*
X94220854Y-126535543D01*
X95373515Y-126059273D01*
X96256174Y-125178153D01*
X96734454Y-124026326D01*
X96735543Y-122779146D01*
X96259273Y-121626485D01*
X95378153Y-120743826D01*
X94226326Y-120265546D01*
X92979146Y-120264457D01*
X91826485Y-120740727D01*
X90943826Y-121621847D01*
X90465546Y-122773674D01*
X90464457Y-124020854D01*
X77623149Y-124020854D01*
X77240625Y-123448366D01*
X77051634Y-123259375D01*
X73807400Y-121091648D01*
X73662752Y-121031734D01*
X73560471Y-120989367D01*
X69733637Y-120228162D01*
X69733636Y-120228162D01*
X69484590Y-120178624D01*
X69386751Y-120113250D01*
X69321376Y-120015409D01*
X69285000Y-119832534D01*
X69285000Y-114555255D01*
X78441400Y-114555255D01*
X78441400Y-114924745D01*
X78555474Y-115498234D01*
X78880330Y-115984415D01*
X79366511Y-116309271D01*
X79940000Y-116423345D01*
X80513489Y-116309271D01*
X80999670Y-115984415D01*
X81206461Y-115674931D01*
X81577964Y-116090732D01*
X82105209Y-116344709D01*
X82120974Y-116347358D01*
X82353000Y-116226217D01*
X82353000Y-114867000D01*
X82333000Y-114867000D01*
X82333000Y-114613000D01*
X82353000Y-114613000D01*
X82353000Y-113253783D01*
X82607000Y-113253783D01*
X82607000Y-114613000D01*
X82627000Y-114613000D01*
X82627000Y-114867000D01*
X82607000Y-114867000D01*
X82607000Y-116226217D01*
X82839026Y-116347358D01*
X82854791Y-116344709D01*
X83382036Y-116090732D01*
X83753539Y-115674931D01*
X83960330Y-115984415D01*
X84446511Y-116309271D01*
X85020000Y-116423345D01*
X85593489Y-116309271D01*
X86079670Y-115984415D01*
X86290000Y-115669634D01*
X86500330Y-115984415D01*
X86986511Y-116309271D01*
X87560000Y-116423345D01*
X88133489Y-116309271D01*
X88619670Y-115984415D01*
X88830000Y-115669634D01*
X89040330Y-115984415D01*
X89526511Y-116309271D01*
X90100000Y-116423345D01*
X90673489Y-116309271D01*
X91159670Y-115984415D01*
X91370000Y-115669634D01*
X91580330Y-115984415D01*
X92066511Y-116309271D01*
X92640000Y-116423345D01*
X93213489Y-116309271D01*
X93699670Y-115984415D01*
X93910000Y-115669634D01*
X94120330Y-115984415D01*
X94420000Y-116184648D01*
X94420000Y-117078000D01*
X94477852Y-117368839D01*
X94642599Y-117615401D01*
X97558000Y-120530802D01*
X97558000Y-128090000D01*
X97615852Y-128380839D01*
X97780599Y-128627401D01*
X100066599Y-130913401D01*
X100313160Y-131078148D01*
X100604000Y-131136000D01*
X121940000Y-131136000D01*
X122230839Y-131078148D01*
X122477401Y-130913401D01*
X129369948Y-124020854D01*
X133464457Y-124020854D01*
X133940727Y-125173515D01*
X134821847Y-126056174D01*
X135973674Y-126534454D01*
X137220854Y-126535543D01*
X138373515Y-126059273D01*
X139256174Y-125178153D01*
X139734454Y-124026326D01*
X139735543Y-122779146D01*
X139259273Y-121626485D01*
X138378153Y-120743826D01*
X137226326Y-120265546D01*
X135979146Y-120264457D01*
X134826485Y-120740727D01*
X133943826Y-121621847D01*
X133465546Y-122773674D01*
X133464457Y-124020854D01*
X129369948Y-124020854D01*
X136193401Y-117197401D01*
X136358148Y-116950840D01*
X136416000Y-116660000D01*
X136416000Y-112505414D01*
X136555582Y-112843229D01*
X136928000Y-113216297D01*
X136928000Y-116609200D01*
X136985852Y-116900039D01*
X137150599Y-117146601D01*
X141814226Y-121810228D01*
X141813769Y-122334583D01*
X142016582Y-122825429D01*
X142391796Y-123201298D01*
X142882287Y-123404968D01*
X143413383Y-123405431D01*
X143904229Y-123202618D01*
X144280098Y-122827404D01*
X144483768Y-122336913D01*
X144484231Y-121805817D01*
X144281418Y-121314971D01*
X143906204Y-120939102D01*
X143415713Y-120735432D01*
X142888574Y-120734972D01*
X138448000Y-116294398D01*
X138448000Y-116086183D01*
X140162769Y-116086183D01*
X140365582Y-116577029D01*
X140740796Y-116952898D01*
X141231287Y-117156568D01*
X141762383Y-117157031D01*
X142253229Y-116954218D01*
X142626297Y-116581800D01*
X144705970Y-116581800D01*
X144867233Y-116972086D01*
X145186235Y-117291645D01*
X145603244Y-117464803D01*
X145952560Y-117465108D01*
X145952560Y-118100000D01*
X145996838Y-118335317D01*
X146135910Y-118551441D01*
X146348110Y-118696431D01*
X146600000Y-118747440D01*
X147600000Y-118747440D01*
X147835317Y-118703162D01*
X148051441Y-118564090D01*
X148190890Y-118360000D01*
X148940000Y-118360000D01*
X149230839Y-118302148D01*
X149477401Y-118137401D01*
X153354802Y-114260000D01*
X154226103Y-114260000D01*
X154276725Y-114382514D01*
X154394754Y-114500749D01*
X154223559Y-114610910D01*
X154078569Y-114823110D01*
X154027560Y-115075000D01*
X154027560Y-116497638D01*
X150231599Y-120293599D01*
X150066852Y-120540161D01*
X150009000Y-120831000D01*
X150009000Y-120985800D01*
X149798858Y-121126212D01*
X149509467Y-121559318D01*
X149407846Y-122070200D01*
X149509467Y-122581082D01*
X149798858Y-123014188D01*
X150231964Y-123303579D01*
X150742846Y-123405200D01*
X150795154Y-123405200D01*
X151306036Y-123303579D01*
X151739142Y-123014188D01*
X152028533Y-122581082D01*
X152130154Y-122070200D01*
X152028533Y-121559318D01*
X151739142Y-121126212D01*
X151624914Y-121049888D01*
X155102362Y-117572440D01*
X156525000Y-117572440D01*
X156760317Y-117528162D01*
X156976441Y-117389090D01*
X157121431Y-117176890D01*
X157172440Y-116925000D01*
X157172440Y-115075000D01*
X157128162Y-114839683D01*
X156989090Y-114623559D01*
X156807126Y-114499229D01*
X156921732Y-114384823D01*
X157159728Y-113811664D01*
X157160270Y-113191058D01*
X156923275Y-112617486D01*
X156556174Y-112249744D01*
X156921732Y-111884823D01*
X157159728Y-111311664D01*
X157160270Y-110691058D01*
X156923275Y-110117486D01*
X156556174Y-109749744D01*
X156921732Y-109384823D01*
X157159728Y-108811664D01*
X157160270Y-108191058D01*
X156923275Y-107617486D01*
X156484823Y-107178268D01*
X155911664Y-106940272D01*
X155291058Y-106939730D01*
X154717486Y-107176725D01*
X154278268Y-107615177D01*
X154226437Y-107740000D01*
X148122931Y-107740000D01*
X148064090Y-107648559D01*
X147851890Y-107503569D01*
X147600000Y-107452560D01*
X146964894Y-107452560D01*
X146965108Y-107207394D01*
X147405375Y-107176217D01*
X147673352Y-107065217D01*
X147710499Y-106850104D01*
X147100000Y-106239605D01*
X147085858Y-106253748D01*
X146906253Y-106074143D01*
X146920395Y-106060000D01*
X147279605Y-106060000D01*
X147890104Y-106670499D01*
X148105217Y-106633352D01*
X148248112Y-106205028D01*
X148216217Y-105754625D01*
X148105217Y-105486648D01*
X147890104Y-105449501D01*
X147279605Y-106060000D01*
X146920395Y-106060000D01*
X146309896Y-105449501D01*
X146094783Y-105486648D01*
X145951888Y-105914972D01*
X145971727Y-106195123D01*
X145605225Y-106194803D01*
X145187914Y-106367233D01*
X145027467Y-106527400D01*
X142778055Y-106527400D01*
X142407604Y-106156302D01*
X141917113Y-105952632D01*
X141386017Y-105952169D01*
X140895171Y-106154982D01*
X140519302Y-106530196D01*
X140315632Y-107020687D01*
X140315169Y-107551783D01*
X140517982Y-108042629D01*
X140893196Y-108418498D01*
X141383687Y-108622168D01*
X141914783Y-108622631D01*
X142405629Y-108419818D01*
X142778697Y-108047400D01*
X144942416Y-108047400D01*
X145186235Y-108291645D01*
X145603244Y-108464803D01*
X145952560Y-108465108D01*
X145952560Y-109100000D01*
X145996838Y-109335317D01*
X146135910Y-109551441D01*
X146348110Y-109696431D01*
X146600000Y-109747440D01*
X147600000Y-109747440D01*
X147835317Y-109703162D01*
X148051441Y-109564090D01*
X148196431Y-109351890D01*
X148215039Y-109260000D01*
X154226103Y-109260000D01*
X154276725Y-109382514D01*
X154643826Y-109750256D01*
X154278268Y-110115177D01*
X154196540Y-110312000D01*
X152420000Y-110312000D01*
X152129161Y-110369852D01*
X151882599Y-110534599D01*
X151089198Y-111328000D01*
X146401078Y-111328000D01*
X146278142Y-111144012D01*
X145845036Y-110854621D01*
X145334154Y-110753000D01*
X145281846Y-110753000D01*
X144770964Y-110854621D01*
X144337858Y-111144012D01*
X144048467Y-111577118D01*
X143946846Y-112088000D01*
X144048467Y-112598882D01*
X144337858Y-113031988D01*
X144770964Y-113321379D01*
X145281846Y-113423000D01*
X145334154Y-113423000D01*
X145845036Y-113321379D01*
X146278142Y-113031988D01*
X146401078Y-112848000D01*
X151404000Y-112848000D01*
X151694839Y-112790148D01*
X151941401Y-112625401D01*
X152734802Y-111832000D01*
X154255853Y-111832000D01*
X154276725Y-111882514D01*
X154643826Y-112250256D01*
X154278268Y-112615177D01*
X154226437Y-112740000D01*
X153040000Y-112740000D01*
X152749161Y-112797852D01*
X152502599Y-112962599D01*
X148625198Y-116840000D01*
X148187279Y-116840000D01*
X148064090Y-116648559D01*
X147851890Y-116503569D01*
X147600000Y-116452560D01*
X146964894Y-116452560D01*
X146965108Y-116207394D01*
X147405375Y-116176217D01*
X147673352Y-116065217D01*
X147710499Y-115850104D01*
X147100000Y-115239605D01*
X147085858Y-115253748D01*
X146906253Y-115074143D01*
X146920395Y-115060000D01*
X147279605Y-115060000D01*
X147890104Y-115670499D01*
X148105217Y-115633352D01*
X148248112Y-115205028D01*
X148216217Y-114754625D01*
X148105217Y-114486648D01*
X147890104Y-114449501D01*
X147279605Y-115060000D01*
X146920395Y-115060000D01*
X146309896Y-114449501D01*
X146094783Y-114486648D01*
X145951888Y-114914972D01*
X145971727Y-115195123D01*
X145725268Y-115194908D01*
X145612639Y-115119652D01*
X145321800Y-115061800D01*
X142625655Y-115061800D01*
X142255204Y-114690702D01*
X141764713Y-114487032D01*
X141233617Y-114486569D01*
X140742771Y-114689382D01*
X140366902Y-115064596D01*
X140163232Y-115555087D01*
X140162769Y-116086183D01*
X138448000Y-116086183D01*
X138448000Y-114269896D01*
X146489501Y-114269896D01*
X147100000Y-114880395D01*
X147710499Y-114269896D01*
X147673352Y-114054783D01*
X147245028Y-113911888D01*
X146794625Y-113943783D01*
X146526648Y-114054783D01*
X146489501Y-114269896D01*
X138448000Y-114269896D01*
X138448000Y-113215655D01*
X138819098Y-112845204D01*
X139022768Y-112354713D01*
X139023231Y-111823617D01*
X138820418Y-111332771D01*
X138448000Y-110959703D01*
X138448000Y-107068802D01*
X140246906Y-105269896D01*
X146489501Y-105269896D01*
X147100000Y-105880395D01*
X147710499Y-105269896D01*
X147673352Y-105054783D01*
X147245028Y-104911888D01*
X146794625Y-104943783D01*
X146526648Y-105054783D01*
X146489501Y-105269896D01*
X140246906Y-105269896D01*
X143795948Y-101720854D01*
X151464457Y-101720854D01*
X151940727Y-102873515D01*
X152821847Y-103756174D01*
X153973674Y-104234454D01*
X155220854Y-104235543D01*
X156373515Y-103759273D01*
X157256174Y-102878153D01*
X157734454Y-101726326D01*
X157735543Y-100479146D01*
X157259273Y-99326485D01*
X156378153Y-98443826D01*
X155226326Y-97965546D01*
X153979146Y-97964457D01*
X152826485Y-98440727D01*
X151943826Y-99321847D01*
X151465546Y-100473674D01*
X151464457Y-101720854D01*
X143795948Y-101720854D01*
X148853401Y-96663401D01*
X148936151Y-96539556D01*
X149342964Y-96811379D01*
X149853846Y-96913000D01*
X149906154Y-96913000D01*
X150417036Y-96811379D01*
X150850142Y-96521988D01*
X151139533Y-96088882D01*
X151241154Y-95578000D01*
X151139533Y-95067118D01*
X150850142Y-94634012D01*
X150640000Y-94493600D01*
X150640000Y-92997344D01*
X150960298Y-92677604D01*
X151009132Y-92560000D01*
X154127560Y-92560000D01*
X154127560Y-92725000D01*
X154171838Y-92960317D01*
X154310910Y-93176441D01*
X154523110Y-93321431D01*
X154775000Y-93372440D01*
X156625000Y-93372440D01*
X156860317Y-93328162D01*
X157076441Y-93189090D01*
X157221431Y-92976890D01*
X157272440Y-92725000D01*
X157272440Y-90875000D01*
X157228162Y-90639683D01*
X157089090Y-90423559D01*
X156907126Y-90299229D01*
X157021732Y-90184823D01*
X157259728Y-89611664D01*
X157260270Y-88991058D01*
X157023275Y-88417486D01*
X156589426Y-87982879D01*
X156618651Y-87898256D01*
X155700000Y-86979605D01*
X154781349Y-87898256D01*
X154810765Y-87983434D01*
X154378268Y-88415177D01*
X154326437Y-88540000D01*
X151562202Y-88540000D01*
X151163974Y-88141772D01*
X151164431Y-87617417D01*
X150961618Y-87126571D01*
X150589200Y-86753503D01*
X150589200Y-86553368D01*
X154128675Y-86553368D01*
X154153903Y-87173461D01*
X154342668Y-87629179D01*
X154601744Y-87718651D01*
X155520395Y-86800000D01*
X155879605Y-86800000D01*
X156798256Y-87718651D01*
X157057332Y-87629179D01*
X157271325Y-87046632D01*
X157246097Y-86426539D01*
X157057332Y-85970821D01*
X156798256Y-85881349D01*
X155879605Y-86800000D01*
X155520395Y-86800000D01*
X154601744Y-85881349D01*
X154342668Y-85970821D01*
X154128675Y-86553368D01*
X150589200Y-86553368D01*
X150589200Y-85701744D01*
X154781349Y-85701744D01*
X155700000Y-86620395D01*
X156618651Y-85701744D01*
X156529179Y-85442668D01*
X155946632Y-85228675D01*
X155326539Y-85253903D01*
X154870821Y-85442668D01*
X154781349Y-85701744D01*
X150589200Y-85701744D01*
X150589200Y-85266343D01*
X150850142Y-85091988D01*
X151139533Y-84658882D01*
X151241154Y-84148000D01*
X151139533Y-83637118D01*
X150850142Y-83204012D01*
X150417036Y-82914621D01*
X149906154Y-82813000D01*
X149853846Y-82813000D01*
X149342964Y-82914621D01*
X148909858Y-83204012D01*
X148620467Y-83637118D01*
X148518846Y-84148000D01*
X148620467Y-84658882D01*
X148909858Y-85091988D01*
X149069200Y-85198456D01*
X149069200Y-86754145D01*
X148974838Y-86848342D01*
X148853401Y-86666599D01*
X147575401Y-85388599D01*
X147328839Y-85223852D01*
X147038000Y-85166000D01*
X143129847Y-85166000D01*
X143391098Y-84905204D01*
X143594768Y-84414713D01*
X143595231Y-83883617D01*
X143392418Y-83392771D01*
X143017204Y-83016902D01*
X142526713Y-82813232D01*
X141995617Y-82812769D01*
X141504771Y-83015582D01*
X141128902Y-83390796D01*
X140925232Y-83881287D01*
X140924769Y-84412383D01*
X141127582Y-84903229D01*
X141389895Y-85166000D01*
X124226000Y-85166000D01*
X123935160Y-85223852D01*
X123688599Y-85388599D01*
X120609198Y-88468000D01*
X115577145Y-88468000D01*
X116073489Y-88369271D01*
X116559670Y-88044415D01*
X116884526Y-87558234D01*
X116998600Y-86984745D01*
X116998600Y-86615255D01*
X116884526Y-86041766D01*
X116559670Y-85555585D01*
X116073489Y-85230729D01*
X115500000Y-85116655D01*
X114926511Y-85230729D01*
X114440330Y-85555585D01*
X114230000Y-85870366D01*
X114019670Y-85555585D01*
X113533489Y-85230729D01*
X112960000Y-85116655D01*
X112386511Y-85230729D01*
X111900330Y-85555585D01*
X111690000Y-85870366D01*
X111479670Y-85555585D01*
X110993489Y-85230729D01*
X110420000Y-85116655D01*
X109846511Y-85230729D01*
X109360330Y-85555585D01*
X109150000Y-85870366D01*
X108939670Y-85555585D01*
X108453489Y-85230729D01*
X107880000Y-85116655D01*
X107306511Y-85230729D01*
X106820330Y-85555585D01*
X106610000Y-85870366D01*
X106399670Y-85555585D01*
X105913489Y-85230729D01*
X105340000Y-85116655D01*
X104766511Y-85230729D01*
X104280330Y-85555585D01*
X104070000Y-85870366D01*
X103859670Y-85555585D01*
X103373489Y-85230729D01*
X102800000Y-85116655D01*
X102226511Y-85230729D01*
X101740330Y-85555585D01*
X101530000Y-85870366D01*
X101319670Y-85555585D01*
X100833489Y-85230729D01*
X100260000Y-85116655D01*
X99686511Y-85230729D01*
X99200330Y-85555585D01*
X98993539Y-85865069D01*
X98622036Y-85449268D01*
X98094791Y-85195291D01*
X98079026Y-85192642D01*
X97847000Y-85313783D01*
X97847000Y-86673000D01*
X97867000Y-86673000D01*
X97867000Y-86927000D01*
X97847000Y-86927000D01*
X97847000Y-88286217D01*
X98079026Y-88407358D01*
X98094791Y-88404709D01*
X98622036Y-88150732D01*
X98993539Y-87734931D01*
X99200330Y-88044415D01*
X99686511Y-88369271D01*
X100260000Y-88483345D01*
X100833489Y-88369271D01*
X101319670Y-88044415D01*
X101530000Y-87729634D01*
X101740330Y-88044415D01*
X102226511Y-88369271D01*
X102800000Y-88483345D01*
X103373489Y-88369271D01*
X103859670Y-88044415D01*
X104070000Y-87729634D01*
X104280330Y-88044415D01*
X104766511Y-88369271D01*
X105340000Y-88483345D01*
X105913489Y-88369271D01*
X106399670Y-88044415D01*
X106610000Y-87729634D01*
X106820330Y-88044415D01*
X107306511Y-88369271D01*
X107880000Y-88483345D01*
X108453489Y-88369271D01*
X108939670Y-88044415D01*
X109150000Y-87729634D01*
X109360330Y-88044415D01*
X109688136Y-88263448D01*
X109717852Y-88412839D01*
X109882599Y-88659401D01*
X110988599Y-89765401D01*
X111235160Y-89930148D01*
X111526000Y-89988000D01*
X120924000Y-89988000D01*
X121214839Y-89930148D01*
X121461401Y-89765401D01*
X124540802Y-86686000D01*
X141615923Y-86686000D01*
X141239058Y-86937812D01*
X140949667Y-87370918D01*
X140848046Y-87881800D01*
X140949667Y-88392682D01*
X141239058Y-88825788D01*
X141672164Y-89115179D01*
X142183046Y-89216800D01*
X142235354Y-89216800D01*
X142746236Y-89115179D01*
X143179342Y-88825788D01*
X143302278Y-88641800D01*
X145238998Y-88641800D01*
X146078000Y-89480802D01*
X146078000Y-94749198D01*
X140167198Y-100660000D01*
X139542995Y-100660000D01*
X139372811Y-100405302D01*
X138907264Y-100094233D01*
X138358113Y-99985000D01*
X138301887Y-99985000D01*
X137752736Y-100094233D01*
X137287189Y-100405302D01*
X137117005Y-100660000D01*
X134386000Y-100660000D01*
X134095161Y-100717852D01*
X133848599Y-100882599D01*
X123657198Y-111074000D01*
X114320000Y-111074000D01*
X114077414Y-111122254D01*
X114029160Y-111131852D01*
X113782599Y-111296599D01*
X112422599Y-112656599D01*
X112257852Y-112903161D01*
X112200000Y-113194000D01*
X112200000Y-113295352D01*
X111900330Y-113495585D01*
X111690000Y-113810366D01*
X111479670Y-113495585D01*
X110993489Y-113170729D01*
X110420000Y-113056655D01*
X109846511Y-113170729D01*
X109360330Y-113495585D01*
X109150000Y-113810366D01*
X108939670Y-113495585D01*
X108453489Y-113170729D01*
X107880000Y-113056655D01*
X107306511Y-113170729D01*
X106820330Y-113495585D01*
X106610000Y-113810366D01*
X106399670Y-113495585D01*
X105913489Y-113170729D01*
X105340000Y-113056655D01*
X104766511Y-113170729D01*
X104280330Y-113495585D01*
X104070000Y-113810366D01*
X103859670Y-113495585D01*
X103373489Y-113170729D01*
X102800000Y-113056655D01*
X102226511Y-113170729D01*
X101740330Y-113495585D01*
X101533539Y-113805069D01*
X101162036Y-113389268D01*
X100634791Y-113135291D01*
X100619026Y-113132642D01*
X100387000Y-113253783D01*
X100387000Y-114613000D01*
X100407000Y-114613000D01*
X100407000Y-114867000D01*
X100387000Y-114867000D01*
X100387000Y-116226217D01*
X100619026Y-116347358D01*
X100634791Y-116344709D01*
X101162036Y-116090732D01*
X101533539Y-115674931D01*
X101740330Y-115984415D01*
X102226511Y-116309271D01*
X102800000Y-116423345D01*
X103373489Y-116309271D01*
X103859670Y-115984415D01*
X104070000Y-115669634D01*
X104280330Y-115984415D01*
X104580000Y-116184648D01*
X104580000Y-120888000D01*
X104637852Y-121178839D01*
X104802599Y-121425401D01*
X108012000Y-124634802D01*
X108012000Y-125954103D01*
X107889486Y-126004725D01*
X107454879Y-126438574D01*
X107370256Y-126409349D01*
X106451605Y-127328000D01*
X107370256Y-128246651D01*
X107455434Y-128217235D01*
X107887177Y-128649732D01*
X108460336Y-128887728D01*
X109080942Y-128888270D01*
X109654514Y-128651275D01*
X109772749Y-128533246D01*
X109882910Y-128704441D01*
X110095110Y-128849431D01*
X110347000Y-128900440D01*
X112197000Y-128900440D01*
X112432317Y-128856162D01*
X112648441Y-128717090D01*
X112793431Y-128504890D01*
X112844440Y-128253000D01*
X112844440Y-126403000D01*
X112800162Y-126167683D01*
X112661090Y-125951559D01*
X112448890Y-125806569D01*
X112197000Y-125755560D01*
X112032000Y-125755560D01*
X112032000Y-124026000D01*
X111974148Y-123735161D01*
X111974148Y-123735160D01*
X111809401Y-123488599D01*
X108640000Y-120319198D01*
X108640000Y-116184648D01*
X108939670Y-115984415D01*
X109150000Y-115669634D01*
X109360330Y-115984415D01*
X109750000Y-116244784D01*
X109750000Y-116660000D01*
X109807852Y-116950839D01*
X109972599Y-117197401D01*
X112512599Y-119737401D01*
X112759160Y-119902148D01*
X112807414Y-119911746D01*
X113050000Y-119960000D01*
X130499800Y-119960000D01*
X130790639Y-119902148D01*
X131037201Y-119737401D01*
X133656632Y-117117970D01*
X133851846Y-117156800D01*
X133904154Y-117156800D01*
X134129153Y-117112045D01*
X121625198Y-129616000D01*
X100918802Y-129616000D01*
X99078000Y-127775198D01*
X99078000Y-127636942D01*
X102211730Y-127636942D01*
X102448725Y-128210514D01*
X102887177Y-128649732D01*
X103460336Y-128887728D01*
X104080942Y-128888270D01*
X104654514Y-128651275D01*
X104879926Y-128426256D01*
X105353349Y-128426256D01*
X105442821Y-128685332D01*
X106025368Y-128899325D01*
X106645461Y-128874097D01*
X107101179Y-128685332D01*
X107190651Y-128426256D01*
X106272000Y-127507605D01*
X105353349Y-128426256D01*
X104879926Y-128426256D01*
X105089121Y-128217426D01*
X105173744Y-128246651D01*
X106092395Y-127328000D01*
X105173744Y-126409349D01*
X105088566Y-126438765D01*
X104879910Y-126229744D01*
X105353349Y-126229744D01*
X106272000Y-127148395D01*
X107190651Y-126229744D01*
X107101179Y-125970668D01*
X106518632Y-125756675D01*
X105898539Y-125781903D01*
X105442821Y-125970668D01*
X105353349Y-126229744D01*
X104879910Y-126229744D01*
X104656823Y-126006268D01*
X104083664Y-125768272D01*
X103463058Y-125767730D01*
X102889486Y-126004725D01*
X102450268Y-126443177D01*
X102212272Y-127016336D01*
X102211730Y-127636942D01*
X99078000Y-127636942D01*
X99078000Y-120216000D01*
X99020148Y-119925161D01*
X98855401Y-119678599D01*
X95940000Y-116763198D01*
X95940000Y-116184648D01*
X96239670Y-115984415D01*
X96450000Y-115669634D01*
X96660330Y-115984415D01*
X97146511Y-116309271D01*
X97720000Y-116423345D01*
X98293489Y-116309271D01*
X98779670Y-115984415D01*
X98986461Y-115674931D01*
X99357964Y-116090732D01*
X99885209Y-116344709D01*
X99900974Y-116347358D01*
X100133000Y-116226217D01*
X100133000Y-114867000D01*
X100113000Y-114867000D01*
X100113000Y-114613000D01*
X100133000Y-114613000D01*
X100133000Y-113253783D01*
X99900974Y-113132642D01*
X99885209Y-113135291D01*
X99357964Y-113389268D01*
X98986461Y-113805069D01*
X98779670Y-113495585D01*
X98480000Y-113295352D01*
X98480000Y-113254802D01*
X109307057Y-102427745D01*
X130001861Y-102427745D01*
X130075995Y-102673864D01*
X130613223Y-102866965D01*
X131183454Y-102839778D01*
X131584005Y-102673864D01*
X131658139Y-102427745D01*
X130830000Y-101599605D01*
X130001861Y-102427745D01*
X109307057Y-102427745D01*
X110531579Y-101203223D01*
X129383035Y-101203223D01*
X129410222Y-101773454D01*
X129576136Y-102174005D01*
X129822255Y-102248139D01*
X130650395Y-101420000D01*
X131009605Y-101420000D01*
X131837745Y-102248139D01*
X132083864Y-102174005D01*
X132276965Y-101636777D01*
X132249778Y-101066546D01*
X132083864Y-100665995D01*
X131837745Y-100591861D01*
X131009605Y-101420000D01*
X130650395Y-101420000D01*
X129822255Y-100591861D01*
X129576136Y-100665995D01*
X129383035Y-101203223D01*
X110531579Y-101203223D01*
X111322547Y-100412255D01*
X130001861Y-100412255D01*
X130830000Y-101240395D01*
X131658139Y-100412255D01*
X131584005Y-100166136D01*
X131046777Y-99973035D01*
X130476546Y-100000222D01*
X130075995Y-100166136D01*
X130001861Y-100412255D01*
X111322547Y-100412255D01*
X115892419Y-95842383D01*
X140924769Y-95842383D01*
X141127582Y-96333229D01*
X141502796Y-96709098D01*
X141993287Y-96912768D01*
X142524383Y-96913231D01*
X143015229Y-96710418D01*
X143391098Y-96335204D01*
X143594768Y-95844713D01*
X143595231Y-95313617D01*
X143392418Y-94822771D01*
X143017204Y-94446902D01*
X142526713Y-94243232D01*
X141995617Y-94242769D01*
X141504771Y-94445582D01*
X141128902Y-94820796D01*
X140925232Y-95311287D01*
X140924769Y-95842383D01*
X115892419Y-95842383D01*
X116158802Y-95576000D01*
X135536000Y-95576000D01*
X135826839Y-95518148D01*
X136073401Y-95353401D01*
X138024898Y-93401904D01*
X138301887Y-93457000D01*
X138358113Y-93457000D01*
X138907264Y-93347767D01*
X139372811Y-93036698D01*
X139610882Y-92680400D01*
X141116122Y-92680400D01*
X141239058Y-92864388D01*
X141672164Y-93153779D01*
X142183046Y-93255400D01*
X142235354Y-93255400D01*
X142746236Y-93153779D01*
X143179342Y-92864388D01*
X143468733Y-92431282D01*
X143570354Y-91920400D01*
X143468733Y-91409518D01*
X143179342Y-90976412D01*
X142746236Y-90687021D01*
X142235354Y-90585400D01*
X142183046Y-90585400D01*
X141672164Y-90687021D01*
X141239058Y-90976412D01*
X141116122Y-91160400D01*
X139475108Y-91160400D01*
X139372811Y-91007302D01*
X138907264Y-90696233D01*
X138358113Y-90587000D01*
X138301887Y-90587000D01*
X137752736Y-90696233D01*
X137287189Y-91007302D01*
X136976120Y-91472849D01*
X136866887Y-92022000D01*
X136931312Y-92345886D01*
X135221198Y-94056000D01*
X115844000Y-94056000D01*
X115553161Y-94113852D01*
X115306599Y-94278599D01*
X97182599Y-112402599D01*
X97017852Y-112649161D01*
X96960000Y-112940000D01*
X96960000Y-113295352D01*
X96660330Y-113495585D01*
X96450000Y-113810366D01*
X96239670Y-113495585D01*
X95753489Y-113170729D01*
X95180000Y-113056655D01*
X94606511Y-113170729D01*
X94120330Y-113495585D01*
X93910000Y-113810366D01*
X93699670Y-113495585D01*
X93213489Y-113170729D01*
X92640000Y-113056655D01*
X92066511Y-113170729D01*
X91580330Y-113495585D01*
X91370000Y-113810366D01*
X91159670Y-113495585D01*
X90673489Y-113170729D01*
X90100000Y-113056655D01*
X89526511Y-113170729D01*
X89040330Y-113495585D01*
X88830000Y-113810366D01*
X88619670Y-113495585D01*
X88133489Y-113170729D01*
X87560000Y-113056655D01*
X86986511Y-113170729D01*
X86500330Y-113495585D01*
X86290000Y-113810366D01*
X86079670Y-113495585D01*
X85593489Y-113170729D01*
X85020000Y-113056655D01*
X84446511Y-113170729D01*
X83960330Y-113495585D01*
X83753539Y-113805069D01*
X83382036Y-113389268D01*
X82854791Y-113135291D01*
X82839026Y-113132642D01*
X82607000Y-113253783D01*
X82353000Y-113253783D01*
X82120974Y-113132642D01*
X82105209Y-113135291D01*
X81577964Y-113389268D01*
X81206461Y-113805069D01*
X80999670Y-113495585D01*
X80513489Y-113170729D01*
X79940000Y-113056655D01*
X79366511Y-113170729D01*
X78880330Y-113495585D01*
X78555474Y-113981766D01*
X78441400Y-114555255D01*
X69285000Y-114555255D01*
X69285000Y-101320854D01*
X72564457Y-101320854D01*
X73040727Y-102473515D01*
X73921847Y-103356174D01*
X75073674Y-103834454D01*
X76320854Y-103835543D01*
X77473515Y-103359273D01*
X78356174Y-102478153D01*
X78834454Y-101326326D01*
X78835543Y-100079146D01*
X78359273Y-98926485D01*
X77478153Y-98043826D01*
X76326326Y-97565546D01*
X75079146Y-97564457D01*
X73926485Y-98040727D01*
X73043826Y-98921847D01*
X72565546Y-100073674D01*
X72564457Y-101320854D01*
X69285000Y-101320854D01*
X69285000Y-93029745D01*
X130001861Y-93029745D01*
X130075995Y-93275864D01*
X130613223Y-93468965D01*
X131183454Y-93441778D01*
X131584005Y-93275864D01*
X131658139Y-93029745D01*
X130830000Y-92201605D01*
X130001861Y-93029745D01*
X69285000Y-93029745D01*
X69285000Y-91805223D01*
X129383035Y-91805223D01*
X129410222Y-92375454D01*
X129576136Y-92776005D01*
X129822255Y-92850139D01*
X130650395Y-92022000D01*
X131009605Y-92022000D01*
X131837745Y-92850139D01*
X132083864Y-92776005D01*
X132276965Y-92238777D01*
X132249778Y-91668546D01*
X132083864Y-91267995D01*
X131837745Y-91193861D01*
X131009605Y-92022000D01*
X130650395Y-92022000D01*
X129822255Y-91193861D01*
X129576136Y-91267995D01*
X129383035Y-91805223D01*
X69285000Y-91805223D01*
X69285000Y-91014255D01*
X130001861Y-91014255D01*
X130830000Y-91842395D01*
X131658139Y-91014255D01*
X131584005Y-90768136D01*
X131046777Y-90575035D01*
X130476546Y-90602222D01*
X130075995Y-90768136D01*
X130001861Y-91014255D01*
X69285000Y-91014255D01*
X69285000Y-86615255D01*
X78441400Y-86615255D01*
X78441400Y-86984745D01*
X78555474Y-87558234D01*
X78880330Y-88044415D01*
X79366511Y-88369271D01*
X79940000Y-88483345D01*
X80513489Y-88369271D01*
X80999670Y-88044415D01*
X81206461Y-87734931D01*
X81577964Y-88150732D01*
X82105209Y-88404709D01*
X82120974Y-88407358D01*
X82353000Y-88286217D01*
X82353000Y-86927000D01*
X82333000Y-86927000D01*
X82333000Y-86673000D01*
X82353000Y-86673000D01*
X82353000Y-85313783D01*
X82607000Y-85313783D01*
X82607000Y-86673000D01*
X82627000Y-86673000D01*
X82627000Y-86927000D01*
X82607000Y-86927000D01*
X82607000Y-88286217D01*
X82839026Y-88407358D01*
X82854791Y-88404709D01*
X83382036Y-88150732D01*
X83753539Y-87734931D01*
X83960330Y-88044415D01*
X84446511Y-88369271D01*
X85020000Y-88483345D01*
X85593489Y-88369271D01*
X86079670Y-88044415D01*
X86290000Y-87729634D01*
X86500330Y-88044415D01*
X86986511Y-88369271D01*
X87560000Y-88483345D01*
X88133489Y-88369271D01*
X88619670Y-88044415D01*
X88830000Y-87729634D01*
X89040330Y-88044415D01*
X89526511Y-88369271D01*
X90100000Y-88483345D01*
X90673489Y-88369271D01*
X91159670Y-88044415D01*
X91366461Y-87734931D01*
X91737964Y-88150732D01*
X92265209Y-88404709D01*
X92280974Y-88407358D01*
X92513000Y-88286217D01*
X92513000Y-86927000D01*
X92493000Y-86927000D01*
X92493000Y-86673000D01*
X92513000Y-86673000D01*
X92513000Y-85313783D01*
X92767000Y-85313783D01*
X92767000Y-86673000D01*
X92787000Y-86673000D01*
X92787000Y-86927000D01*
X92767000Y-86927000D01*
X92767000Y-88286217D01*
X92999026Y-88407358D01*
X93014791Y-88404709D01*
X93542036Y-88150732D01*
X93913539Y-87734931D01*
X94120330Y-88044415D01*
X94606511Y-88369271D01*
X95180000Y-88483345D01*
X95753489Y-88369271D01*
X96239670Y-88044415D01*
X96446461Y-87734931D01*
X96817964Y-88150732D01*
X97345209Y-88404709D01*
X97360974Y-88407358D01*
X97593000Y-88286217D01*
X97593000Y-86927000D01*
X97573000Y-86927000D01*
X97573000Y-86673000D01*
X97593000Y-86673000D01*
X97593000Y-85313783D01*
X97360974Y-85192642D01*
X97345209Y-85195291D01*
X96817964Y-85449268D01*
X96446461Y-85865069D01*
X96239670Y-85555585D01*
X95753489Y-85230729D01*
X95180000Y-85116655D01*
X94606511Y-85230729D01*
X94120330Y-85555585D01*
X93913539Y-85865069D01*
X93542036Y-85449268D01*
X93014791Y-85195291D01*
X92999026Y-85192642D01*
X92767000Y-85313783D01*
X92513000Y-85313783D01*
X92280974Y-85192642D01*
X92265209Y-85195291D01*
X91737964Y-85449268D01*
X91366461Y-85865069D01*
X91159670Y-85555585D01*
X90673489Y-85230729D01*
X90100000Y-85116655D01*
X89526511Y-85230729D01*
X89040330Y-85555585D01*
X88830000Y-85870366D01*
X88619670Y-85555585D01*
X88133489Y-85230729D01*
X87560000Y-85116655D01*
X86986511Y-85230729D01*
X86500330Y-85555585D01*
X86290000Y-85870366D01*
X86079670Y-85555585D01*
X85593489Y-85230729D01*
X85020000Y-85116655D01*
X84446511Y-85230729D01*
X83960330Y-85555585D01*
X83753539Y-85865069D01*
X83382036Y-85449268D01*
X82854791Y-85195291D01*
X82839026Y-85192642D01*
X82607000Y-85313783D01*
X82353000Y-85313783D01*
X82120974Y-85192642D01*
X82105209Y-85195291D01*
X81577964Y-85449268D01*
X81206461Y-85865069D01*
X80999670Y-85555585D01*
X80513489Y-85230729D01*
X79940000Y-85116655D01*
X79366511Y-85230729D01*
X78880330Y-85555585D01*
X78555474Y-86041766D01*
X78441400Y-86615255D01*
X69285000Y-86615255D01*
X69285000Y-82967466D01*
X69321376Y-82784591D01*
X69386751Y-82686750D01*
X69484590Y-82621376D01*
X69733636Y-82571838D01*
X69733637Y-82571838D01*
X73560471Y-81810633D01*
X73667347Y-81766363D01*
X73807400Y-81708352D01*
X76183259Y-80120854D01*
X90364457Y-80120854D01*
X90840727Y-81273515D01*
X91721847Y-82156174D01*
X92873674Y-82634454D01*
X94120854Y-82635543D01*
X95273515Y-82159273D01*
X96156174Y-81278153D01*
X96595202Y-80220854D01*
X133464457Y-80220854D01*
X133940727Y-81373515D01*
X134821847Y-82256174D01*
X135973674Y-82734454D01*
X137220854Y-82735543D01*
X138373515Y-82259273D01*
X139256174Y-81378153D01*
X139734454Y-80226326D01*
X139735543Y-78979146D01*
X139259273Y-77826485D01*
X138378153Y-76943826D01*
X137226326Y-76465546D01*
X135979146Y-76464457D01*
X134826485Y-76940727D01*
X133943826Y-77821847D01*
X133465546Y-78973674D01*
X133464457Y-80220854D01*
X96595202Y-80220854D01*
X96634454Y-80126326D01*
X96635543Y-78879146D01*
X96159273Y-77726485D01*
X95278153Y-76843826D01*
X94126326Y-76365546D01*
X92879146Y-76364457D01*
X91726485Y-76840727D01*
X90843826Y-77721847D01*
X90365546Y-78873674D01*
X90364457Y-80120854D01*
X76183259Y-80120854D01*
X77051634Y-79540625D01*
X77240625Y-79351634D01*
X79408352Y-76107399D01*
X79510633Y-75860470D01*
X80271838Y-72033637D01*
X80271838Y-72033636D01*
X80321376Y-71784591D01*
X80386751Y-71686750D01*
X80484590Y-71621376D01*
X80667466Y-71585000D01*
X149532534Y-71585000D01*
X149715409Y-71621376D01*
M02*
