G04 #@! TF.FileFunction,Legend,Top*
%FSLAX46Y46*%
G04 Gerber Fmt 4.6, Leading zero omitted, Abs format (unit mm)*
G04 Created by KiCad (PCBNEW 4.0.6) date 06/19/17 18:14:00*
%MOMM*%
%LPD*%
G01*
G04 APERTURE LIST*
%ADD10C,0.100000*%
%ADD11C,0.300000*%
%ADD12C,0.120000*%
%ADD13C,0.150000*%
G04 APERTURE END LIST*
D10*
D11*
X104748572Y-79238571D02*
X104748572Y-77738571D01*
X105248572Y-78810000D01*
X105748572Y-77738571D01*
X105748572Y-79238571D01*
X107462858Y-79381429D02*
X107320001Y-79310000D01*
X107177144Y-79167143D01*
X106962858Y-78952857D01*
X106820001Y-78881429D01*
X106677144Y-78881429D01*
X106748572Y-79238571D02*
X106605715Y-79167143D01*
X106462858Y-79024286D01*
X106391429Y-78738571D01*
X106391429Y-78238571D01*
X106462858Y-77952857D01*
X106605715Y-77810000D01*
X106748572Y-77738571D01*
X107034286Y-77738571D01*
X107177144Y-77810000D01*
X107320001Y-77952857D01*
X107391429Y-78238571D01*
X107391429Y-78738571D01*
X107320001Y-79024286D01*
X107177144Y-79167143D01*
X107034286Y-79238571D01*
X106748572Y-79238571D01*
X107820001Y-77738571D02*
X108677144Y-77738571D01*
X108248573Y-79238571D02*
X108248573Y-77738571D01*
X108962858Y-77738571D02*
X109820001Y-77738571D01*
X109391430Y-79238571D02*
X109391430Y-77738571D01*
X111962858Y-78452857D02*
X112177144Y-78524286D01*
X112248572Y-78595714D01*
X112320001Y-78738571D01*
X112320001Y-78952857D01*
X112248572Y-79095714D01*
X112177144Y-79167143D01*
X112034286Y-79238571D01*
X111462858Y-79238571D01*
X111462858Y-77738571D01*
X111962858Y-77738571D01*
X112105715Y-77810000D01*
X112177144Y-77881429D01*
X112248572Y-78024286D01*
X112248572Y-78167143D01*
X112177144Y-78310000D01*
X112105715Y-78381429D01*
X111962858Y-78452857D01*
X111462858Y-78452857D01*
X113605715Y-78238571D02*
X113605715Y-79238571D01*
X112962858Y-78238571D02*
X112962858Y-79024286D01*
X113034286Y-79167143D01*
X113177144Y-79238571D01*
X113391429Y-79238571D01*
X113534286Y-79167143D01*
X113605715Y-79095714D01*
X114105715Y-78238571D02*
X114677144Y-78238571D01*
X114320001Y-77738571D02*
X114320001Y-79024286D01*
X114391429Y-79167143D01*
X114534287Y-79238571D01*
X114677144Y-79238571D01*
X114962858Y-78238571D02*
X115534287Y-78238571D01*
X115177144Y-77738571D02*
X115177144Y-79024286D01*
X115248572Y-79167143D01*
X115391430Y-79238571D01*
X115534287Y-79238571D01*
X116248573Y-79238571D02*
X116105715Y-79167143D01*
X116034287Y-79095714D01*
X115962858Y-78952857D01*
X115962858Y-78524286D01*
X116034287Y-78381429D01*
X116105715Y-78310000D01*
X116248573Y-78238571D01*
X116462858Y-78238571D01*
X116605715Y-78310000D01*
X116677144Y-78381429D01*
X116748573Y-78524286D01*
X116748573Y-78952857D01*
X116677144Y-79095714D01*
X116605715Y-79167143D01*
X116462858Y-79238571D01*
X116248573Y-79238571D01*
X117391430Y-78238571D02*
X117391430Y-79238571D01*
X117391430Y-78381429D02*
X117462858Y-78310000D01*
X117605716Y-78238571D01*
X117820001Y-78238571D01*
X117962858Y-78310000D01*
X118034287Y-78452857D01*
X118034287Y-79238571D01*
X119748573Y-78238571D02*
X120105716Y-79238571D01*
X120462858Y-78238571D01*
X121820001Y-79238571D02*
X120962858Y-79238571D01*
X121391430Y-79238571D02*
X121391430Y-77738571D01*
X121248573Y-77952857D01*
X121105715Y-78095714D01*
X120962858Y-78167143D01*
X122462858Y-79095714D02*
X122534286Y-79167143D01*
X122462858Y-79238571D01*
X122391429Y-79167143D01*
X122462858Y-79095714D01*
X122462858Y-79238571D01*
X123462858Y-77738571D02*
X123605715Y-77738571D01*
X123748572Y-77810000D01*
X123820001Y-77881429D01*
X123891430Y-78024286D01*
X123962858Y-78310000D01*
X123962858Y-78667143D01*
X123891430Y-78952857D01*
X123820001Y-79095714D01*
X123748572Y-79167143D01*
X123605715Y-79238571D01*
X123462858Y-79238571D01*
X123320001Y-79167143D01*
X123248572Y-79095714D01*
X123177144Y-78952857D01*
X123105715Y-78667143D01*
X123105715Y-78310000D01*
X123177144Y-78024286D01*
X123248572Y-77881429D01*
X123320001Y-77810000D01*
X123462858Y-77738571D01*
D12*
X132620000Y-100060000D02*
X132620000Y-102780000D01*
X132620000Y-102780000D02*
X136540000Y-102780000D01*
X136540000Y-102780000D02*
X136540000Y-100060000D01*
X136540000Y-100060000D02*
X132620000Y-100060000D01*
X131810000Y-101420000D02*
X132620000Y-101420000D01*
X137350000Y-101420000D02*
X136540000Y-101420000D01*
X132620000Y-90662000D02*
X132620000Y-93382000D01*
X132620000Y-93382000D02*
X136540000Y-93382000D01*
X136540000Y-93382000D02*
X136540000Y-90662000D01*
X136540000Y-90662000D02*
X132620000Y-90662000D01*
X131810000Y-92022000D02*
X132620000Y-92022000D01*
X137350000Y-92022000D02*
X136540000Y-92022000D01*
X153950000Y-94450000D02*
X158050000Y-94450000D01*
X158050000Y-94450000D02*
X158050000Y-84150000D01*
X158050000Y-84150000D02*
X153950000Y-84150000D01*
X153950000Y-84150000D02*
X153950000Y-94450000D01*
X155700000Y-94450000D02*
X155700000Y-93950000D01*
X155700000Y-93950000D02*
X154450000Y-93950000D01*
X154450000Y-93950000D02*
X154450000Y-84650000D01*
X154450000Y-84650000D02*
X155700000Y-84650000D01*
X155700000Y-84650000D02*
X155700000Y-84150000D01*
X156550000Y-94450000D02*
X156550000Y-93450000D01*
X156550000Y-93450000D02*
X158050000Y-93450000D01*
X156550000Y-84150000D02*
X156550000Y-85150000D01*
X156550000Y-85150000D02*
X158050000Y-85150000D01*
X155850000Y-94750000D02*
X158350000Y-94750000D01*
X158350000Y-94750000D02*
X158350000Y-92250000D01*
X153850000Y-118650000D02*
X157950000Y-118650000D01*
X157950000Y-118650000D02*
X157950000Y-105850000D01*
X157950000Y-105850000D02*
X153850000Y-105850000D01*
X153850000Y-105850000D02*
X153850000Y-118650000D01*
X155600000Y-118650000D02*
X155600000Y-118150000D01*
X155600000Y-118150000D02*
X154350000Y-118150000D01*
X154350000Y-118150000D02*
X154350000Y-106350000D01*
X154350000Y-106350000D02*
X155600000Y-106350000D01*
X155600000Y-106350000D02*
X155600000Y-105850000D01*
X156450000Y-118650000D02*
X156450000Y-117650000D01*
X156450000Y-117650000D02*
X157950000Y-117650000D01*
X156450000Y-105850000D02*
X156450000Y-106850000D01*
X156450000Y-106850000D02*
X157950000Y-106850000D01*
X155750000Y-118950000D02*
X158250000Y-118950000D01*
X158250000Y-118950000D02*
X158250000Y-116450000D01*
X113922000Y-129078000D02*
X113922000Y-124978000D01*
X113922000Y-124978000D02*
X101122000Y-124978000D01*
X101122000Y-124978000D02*
X101122000Y-129078000D01*
X101122000Y-129078000D02*
X113922000Y-129078000D01*
X113922000Y-127328000D02*
X113422000Y-127328000D01*
X113422000Y-127328000D02*
X113422000Y-128578000D01*
X113422000Y-128578000D02*
X101622000Y-128578000D01*
X101622000Y-128578000D02*
X101622000Y-127328000D01*
X101622000Y-127328000D02*
X101122000Y-127328000D01*
X113922000Y-126478000D02*
X112922000Y-126478000D01*
X112922000Y-126478000D02*
X112922000Y-124978000D01*
X101122000Y-126478000D02*
X102122000Y-126478000D01*
X102122000Y-126478000D02*
X102122000Y-124978000D01*
X114222000Y-127178000D02*
X114222000Y-124678000D01*
X114222000Y-124678000D02*
X111722000Y-124678000D01*
X148950000Y-118130000D02*
X148950000Y-114530000D01*
X148938478Y-118168478D02*
G75*
G02X144500000Y-116330000I-1838478J1838478D01*
G01*
X148938478Y-114491522D02*
G75*
G03X144500000Y-116330000I-1838478J-1838478D01*
G01*
X148950000Y-109130000D02*
X148950000Y-105530000D01*
X148938478Y-109168478D02*
G75*
G02X144500000Y-107330000I-1838478J1838478D01*
G01*
X148938478Y-105491522D02*
G75*
G03X144500000Y-107330000I-1838478J-1838478D01*
G01*
X147879200Y-88741800D02*
X147879200Y-87021800D01*
X147879200Y-87021800D02*
X144159200Y-87021800D01*
X144159200Y-87021800D02*
X144159200Y-88741800D01*
X144159200Y-88741800D02*
X147879200Y-88741800D01*
X148949200Y-87881800D02*
X147879200Y-87881800D01*
X143089200Y-87881800D02*
X144159200Y-87881800D01*
X144210000Y-83288000D02*
X144210000Y-85008000D01*
X144210000Y-85008000D02*
X147930000Y-85008000D01*
X147930000Y-85008000D02*
X147930000Y-83288000D01*
X147930000Y-83288000D02*
X144210000Y-83288000D01*
X143140000Y-84148000D02*
X144210000Y-84148000D01*
X149000000Y-84148000D02*
X147930000Y-84148000D01*
X139548000Y-116681800D02*
X139548000Y-114961800D01*
X139548000Y-114961800D02*
X135828000Y-114961800D01*
X135828000Y-114961800D02*
X135828000Y-116681800D01*
X135828000Y-116681800D02*
X139548000Y-116681800D01*
X140618000Y-115821800D02*
X139548000Y-115821800D01*
X134758000Y-115821800D02*
X135828000Y-115821800D01*
X145099000Y-121210200D02*
X145099000Y-122930200D01*
X145099000Y-122930200D02*
X148819000Y-122930200D01*
X148819000Y-122930200D02*
X148819000Y-121210200D01*
X148819000Y-121210200D02*
X145099000Y-121210200D01*
X144029000Y-122070200D02*
X145099000Y-122070200D01*
X149889000Y-122070200D02*
X148819000Y-122070200D01*
X147879200Y-92780400D02*
X147879200Y-91060400D01*
X147879200Y-91060400D02*
X144159200Y-91060400D01*
X144159200Y-91060400D02*
X144159200Y-92780400D01*
X144159200Y-92780400D02*
X147879200Y-92780400D01*
X148949200Y-91920400D02*
X147879200Y-91920400D01*
X143089200Y-91920400D02*
X144159200Y-91920400D01*
X144210000Y-94718000D02*
X144210000Y-96438000D01*
X144210000Y-96438000D02*
X147930000Y-96438000D01*
X147930000Y-96438000D02*
X147930000Y-94718000D01*
X147930000Y-94718000D02*
X144210000Y-94718000D01*
X143140000Y-95578000D02*
X144210000Y-95578000D01*
X149000000Y-95578000D02*
X147930000Y-95578000D01*
X139700400Y-108147400D02*
X139700400Y-106427400D01*
X139700400Y-106427400D02*
X135980400Y-106427400D01*
X135980400Y-106427400D02*
X135980400Y-108147400D01*
X135980400Y-108147400D02*
X139700400Y-108147400D01*
X140770400Y-107287400D02*
X139700400Y-107287400D01*
X134910400Y-107287400D02*
X135980400Y-107287400D01*
X139638000Y-111228000D02*
X139638000Y-112948000D01*
X139638000Y-112948000D02*
X143358000Y-112948000D01*
X143358000Y-112948000D02*
X143358000Y-111228000D01*
X143358000Y-111228000D02*
X139638000Y-111228000D01*
X138568000Y-112088000D02*
X139638000Y-112088000D01*
X144428000Y-112088000D02*
X143358000Y-112088000D01*
D13*
X114230000Y-85530000D02*
X78670000Y-85530000D01*
X78670000Y-85530000D02*
X78670000Y-88070000D01*
X78670000Y-88070000D02*
X114230000Y-88070000D01*
X117050000Y-88350000D02*
X115500000Y-88350000D01*
X114230000Y-88070000D02*
X114230000Y-85530000D01*
X115500000Y-85250000D02*
X117050000Y-85250000D01*
X117050000Y-85250000D02*
X117050000Y-88350000D01*
X78670000Y-113470000D02*
X78670000Y-116010000D01*
X116770000Y-113470000D02*
X78670000Y-113470000D01*
X116770000Y-116010000D02*
X116770000Y-113470000D01*
X78670000Y-116010000D02*
X116770000Y-116010000D01*
X134413334Y-99417143D02*
X134365715Y-99464762D01*
X134222858Y-99512381D01*
X134127620Y-99512381D01*
X133984762Y-99464762D01*
X133889524Y-99369524D01*
X133841905Y-99274286D01*
X133794286Y-99083810D01*
X133794286Y-98940952D01*
X133841905Y-98750476D01*
X133889524Y-98655238D01*
X133984762Y-98560000D01*
X134127620Y-98512381D01*
X134222858Y-98512381D01*
X134365715Y-98560000D01*
X134413334Y-98607619D01*
X135365715Y-99512381D02*
X134794286Y-99512381D01*
X135080000Y-99512381D02*
X135080000Y-98512381D01*
X134984762Y-98655238D01*
X134889524Y-98750476D01*
X134794286Y-98798095D01*
X134413334Y-90019143D02*
X134365715Y-90066762D01*
X134222858Y-90114381D01*
X134127620Y-90114381D01*
X133984762Y-90066762D01*
X133889524Y-89971524D01*
X133841905Y-89876286D01*
X133794286Y-89685810D01*
X133794286Y-89542952D01*
X133841905Y-89352476D01*
X133889524Y-89257238D01*
X133984762Y-89162000D01*
X134127620Y-89114381D01*
X134222858Y-89114381D01*
X134365715Y-89162000D01*
X134413334Y-89209619D01*
X134794286Y-89209619D02*
X134841905Y-89162000D01*
X134937143Y-89114381D01*
X135175239Y-89114381D01*
X135270477Y-89162000D01*
X135318096Y-89209619D01*
X135365715Y-89304857D01*
X135365715Y-89400095D01*
X135318096Y-89542952D01*
X134746667Y-90114381D01*
X135365715Y-90114381D01*
X152152381Y-89633333D02*
X152866667Y-89633333D01*
X153009524Y-89680953D01*
X153104762Y-89776191D01*
X153152381Y-89919048D01*
X153152381Y-90014286D01*
X153152381Y-88633333D02*
X153152381Y-89204762D01*
X153152381Y-88919048D02*
X152152381Y-88919048D01*
X152295238Y-89014286D01*
X152390476Y-89109524D01*
X152438095Y-89204762D01*
X159128571Y-90133333D02*
X159176190Y-89990476D01*
X159223810Y-89942857D01*
X159319048Y-89895238D01*
X159461905Y-89895238D01*
X159557143Y-89942857D01*
X159604762Y-89990476D01*
X159652381Y-90085714D01*
X159652381Y-90466667D01*
X158652381Y-90466667D01*
X158652381Y-90133333D01*
X158700000Y-90038095D01*
X158747619Y-89990476D01*
X158842857Y-89942857D01*
X158938095Y-89942857D01*
X159033333Y-89990476D01*
X159080952Y-90038095D01*
X159128571Y-90133333D01*
X159128571Y-90466667D01*
X158652381Y-89609524D02*
X158652381Y-89038095D01*
X159652381Y-89323810D02*
X158652381Y-89323810D01*
X159652381Y-88704762D02*
X158652381Y-88704762D01*
X159652381Y-88133333D01*
X158652381Y-88133333D01*
X152052381Y-112583333D02*
X152766667Y-112583333D01*
X152909524Y-112630953D01*
X153004762Y-112726191D01*
X153052381Y-112869048D01*
X153052381Y-112964286D01*
X152147619Y-112154762D02*
X152100000Y-112107143D01*
X152052381Y-112011905D01*
X152052381Y-111773809D01*
X152100000Y-111678571D01*
X152147619Y-111630952D01*
X152242857Y-111583333D01*
X152338095Y-111583333D01*
X152480952Y-111630952D01*
X153052381Y-112202381D01*
X153052381Y-111583333D01*
X159552381Y-112892857D02*
X159552381Y-113369048D01*
X158552381Y-113369048D01*
X159028571Y-112559524D02*
X159028571Y-112226190D01*
X159552381Y-112083333D02*
X159552381Y-112559524D01*
X158552381Y-112559524D01*
X158552381Y-112083333D01*
X159552381Y-111654762D02*
X158552381Y-111654762D01*
X158552381Y-111416667D01*
X158600000Y-111273809D01*
X158695238Y-111178571D01*
X158790476Y-111130952D01*
X158980952Y-111083333D01*
X159123810Y-111083333D01*
X159314286Y-111130952D01*
X159409524Y-111178571D01*
X159504762Y-111273809D01*
X159552381Y-111416667D01*
X159552381Y-111654762D01*
X107128667Y-122970381D02*
X107128667Y-123684667D01*
X107081047Y-123827524D01*
X106985809Y-123922762D01*
X106842952Y-123970381D01*
X106747714Y-123970381D01*
X107509619Y-122970381D02*
X108128667Y-122970381D01*
X107795333Y-123351333D01*
X107938191Y-123351333D01*
X108033429Y-123398952D01*
X108081048Y-123446571D01*
X108128667Y-123541810D01*
X108128667Y-123779905D01*
X108081048Y-123875143D01*
X108033429Y-123922762D01*
X107938191Y-123970381D01*
X107652476Y-123970381D01*
X107557238Y-123922762D01*
X107509619Y-123875143D01*
X104747714Y-130542667D02*
X105223905Y-130542667D01*
X104652476Y-130828381D02*
X104985809Y-129828381D01*
X105319143Y-130828381D01*
X105652476Y-130828381D02*
X105652476Y-129828381D01*
X105985810Y-130542667D01*
X106319143Y-129828381D01*
X106319143Y-130828381D01*
X106747714Y-129923619D02*
X106795333Y-129876000D01*
X106890571Y-129828381D01*
X107128667Y-129828381D01*
X107223905Y-129876000D01*
X107271524Y-129923619D01*
X107319143Y-130018857D01*
X107319143Y-130114095D01*
X107271524Y-130256952D01*
X106700095Y-130828381D01*
X107319143Y-130828381D01*
X107652476Y-129828381D02*
X108271524Y-129828381D01*
X107938190Y-130209333D01*
X108081048Y-130209333D01*
X108176286Y-130256952D01*
X108223905Y-130304571D01*
X108271524Y-130399810D01*
X108271524Y-130637905D01*
X108223905Y-130733143D01*
X108176286Y-130780762D01*
X108081048Y-130828381D01*
X107795333Y-130828381D01*
X107700095Y-130780762D01*
X107652476Y-130733143D01*
X108652476Y-129923619D02*
X108700095Y-129876000D01*
X108795333Y-129828381D01*
X109033429Y-129828381D01*
X109128667Y-129876000D01*
X109176286Y-129923619D01*
X109223905Y-130018857D01*
X109223905Y-130114095D01*
X109176286Y-130256952D01*
X108604857Y-130828381D01*
X109223905Y-130828381D01*
X109842952Y-129828381D02*
X109938191Y-129828381D01*
X110033429Y-129876000D01*
X110081048Y-129923619D01*
X110128667Y-130018857D01*
X110176286Y-130209333D01*
X110176286Y-130447429D01*
X110128667Y-130637905D01*
X110081048Y-130733143D01*
X110033429Y-130780762D01*
X109938191Y-130828381D01*
X109842952Y-130828381D01*
X109747714Y-130780762D01*
X109700095Y-130733143D01*
X109652476Y-130637905D01*
X109604857Y-130447429D01*
X109604857Y-130209333D01*
X109652476Y-130018857D01*
X109700095Y-129923619D01*
X109747714Y-129876000D01*
X109842952Y-129828381D01*
X144087619Y-116425238D02*
X144040000Y-116520476D01*
X143944762Y-116615714D01*
X143801905Y-116758571D01*
X143754286Y-116853810D01*
X143754286Y-116949048D01*
X143992381Y-116901429D02*
X143944762Y-116996667D01*
X143849524Y-117091905D01*
X143659048Y-117139524D01*
X143325714Y-117139524D01*
X143135238Y-117091905D01*
X143040000Y-116996667D01*
X142992381Y-116901429D01*
X142992381Y-116710952D01*
X143040000Y-116615714D01*
X143135238Y-116520476D01*
X143325714Y-116472857D01*
X143659048Y-116472857D01*
X143849524Y-116520476D01*
X143944762Y-116615714D01*
X143992381Y-116710952D01*
X143992381Y-116901429D01*
X143992381Y-115520476D02*
X143992381Y-116091905D01*
X143992381Y-115806191D02*
X142992381Y-115806191D01*
X143135238Y-115901429D01*
X143230476Y-115996667D01*
X143278095Y-116091905D01*
X144087619Y-107425238D02*
X144040000Y-107520476D01*
X143944762Y-107615714D01*
X143801905Y-107758571D01*
X143754286Y-107853810D01*
X143754286Y-107949048D01*
X143992381Y-107901429D02*
X143944762Y-107996667D01*
X143849524Y-108091905D01*
X143659048Y-108139524D01*
X143325714Y-108139524D01*
X143135238Y-108091905D01*
X143040000Y-107996667D01*
X142992381Y-107901429D01*
X142992381Y-107710952D01*
X143040000Y-107615714D01*
X143135238Y-107520476D01*
X143325714Y-107472857D01*
X143659048Y-107472857D01*
X143849524Y-107520476D01*
X143944762Y-107615714D01*
X143992381Y-107710952D01*
X143992381Y-107901429D01*
X143087619Y-107091905D02*
X143040000Y-107044286D01*
X142992381Y-106949048D01*
X142992381Y-106710952D01*
X143040000Y-106615714D01*
X143087619Y-106568095D01*
X143182857Y-106520476D01*
X143278095Y-106520476D01*
X143420952Y-106568095D01*
X143992381Y-107139524D01*
X143992381Y-106520476D01*
X145852534Y-90194181D02*
X145519200Y-89717990D01*
X145281105Y-90194181D02*
X145281105Y-89194181D01*
X145662058Y-89194181D01*
X145757296Y-89241800D01*
X145804915Y-89289419D01*
X145852534Y-89384657D01*
X145852534Y-89527514D01*
X145804915Y-89622752D01*
X145757296Y-89670371D01*
X145662058Y-89717990D01*
X145281105Y-89717990D01*
X146804915Y-90194181D02*
X146233486Y-90194181D01*
X146519200Y-90194181D02*
X146519200Y-89194181D01*
X146423962Y-89337038D01*
X146328724Y-89432276D01*
X146233486Y-89479895D01*
X145903334Y-86378381D02*
X145570000Y-85902190D01*
X145331905Y-86378381D02*
X145331905Y-85378381D01*
X145712858Y-85378381D01*
X145808096Y-85426000D01*
X145855715Y-85473619D01*
X145903334Y-85568857D01*
X145903334Y-85711714D01*
X145855715Y-85806952D01*
X145808096Y-85854571D01*
X145712858Y-85902190D01*
X145331905Y-85902190D01*
X146284286Y-85473619D02*
X146331905Y-85426000D01*
X146427143Y-85378381D01*
X146665239Y-85378381D01*
X146760477Y-85426000D01*
X146808096Y-85473619D01*
X146855715Y-85568857D01*
X146855715Y-85664095D01*
X146808096Y-85806952D01*
X146236667Y-86378381D01*
X146855715Y-86378381D01*
X137521334Y-118134181D02*
X137188000Y-117657990D01*
X136949905Y-118134181D02*
X136949905Y-117134181D01*
X137330858Y-117134181D01*
X137426096Y-117181800D01*
X137473715Y-117229419D01*
X137521334Y-117324657D01*
X137521334Y-117467514D01*
X137473715Y-117562752D01*
X137426096Y-117610371D01*
X137330858Y-117657990D01*
X136949905Y-117657990D01*
X137854667Y-117134181D02*
X138473715Y-117134181D01*
X138140381Y-117515133D01*
X138283239Y-117515133D01*
X138378477Y-117562752D01*
X138426096Y-117610371D01*
X138473715Y-117705610D01*
X138473715Y-117943705D01*
X138426096Y-118038943D01*
X138378477Y-118086562D01*
X138283239Y-118134181D01*
X137997524Y-118134181D01*
X137902286Y-118086562D01*
X137854667Y-118038943D01*
X146792334Y-120662581D02*
X146459000Y-120186390D01*
X146220905Y-120662581D02*
X146220905Y-119662581D01*
X146601858Y-119662581D01*
X146697096Y-119710200D01*
X146744715Y-119757819D01*
X146792334Y-119853057D01*
X146792334Y-119995914D01*
X146744715Y-120091152D01*
X146697096Y-120138771D01*
X146601858Y-120186390D01*
X146220905Y-120186390D01*
X147649477Y-119995914D02*
X147649477Y-120662581D01*
X147411381Y-119614962D02*
X147173286Y-120329248D01*
X147792334Y-120329248D01*
X145852534Y-94232781D02*
X145519200Y-93756590D01*
X145281105Y-94232781D02*
X145281105Y-93232781D01*
X145662058Y-93232781D01*
X145757296Y-93280400D01*
X145804915Y-93328019D01*
X145852534Y-93423257D01*
X145852534Y-93566114D01*
X145804915Y-93661352D01*
X145757296Y-93708971D01*
X145662058Y-93756590D01*
X145281105Y-93756590D01*
X146757296Y-93232781D02*
X146281105Y-93232781D01*
X146233486Y-93708971D01*
X146281105Y-93661352D01*
X146376343Y-93613733D01*
X146614439Y-93613733D01*
X146709677Y-93661352D01*
X146757296Y-93708971D01*
X146804915Y-93804210D01*
X146804915Y-94042305D01*
X146757296Y-94137543D01*
X146709677Y-94185162D01*
X146614439Y-94232781D01*
X146376343Y-94232781D01*
X146281105Y-94185162D01*
X146233486Y-94137543D01*
X145903334Y-98062381D02*
X145570000Y-97586190D01*
X145331905Y-98062381D02*
X145331905Y-97062381D01*
X145712858Y-97062381D01*
X145808096Y-97110000D01*
X145855715Y-97157619D01*
X145903334Y-97252857D01*
X145903334Y-97395714D01*
X145855715Y-97490952D01*
X145808096Y-97538571D01*
X145712858Y-97586190D01*
X145331905Y-97586190D01*
X146760477Y-97062381D02*
X146570000Y-97062381D01*
X146474762Y-97110000D01*
X146427143Y-97157619D01*
X146331905Y-97300476D01*
X146284286Y-97490952D01*
X146284286Y-97871905D01*
X146331905Y-97967143D01*
X146379524Y-98014762D01*
X146474762Y-98062381D01*
X146665239Y-98062381D01*
X146760477Y-98014762D01*
X146808096Y-97967143D01*
X146855715Y-97871905D01*
X146855715Y-97633810D01*
X146808096Y-97538571D01*
X146760477Y-97490952D01*
X146665239Y-97443333D01*
X146474762Y-97443333D01*
X146379524Y-97490952D01*
X146331905Y-97538571D01*
X146284286Y-97633810D01*
X137673734Y-109599781D02*
X137340400Y-109123590D01*
X137102305Y-109599781D02*
X137102305Y-108599781D01*
X137483258Y-108599781D01*
X137578496Y-108647400D01*
X137626115Y-108695019D01*
X137673734Y-108790257D01*
X137673734Y-108933114D01*
X137626115Y-109028352D01*
X137578496Y-109075971D01*
X137483258Y-109123590D01*
X137102305Y-109123590D01*
X138007067Y-108599781D02*
X138673734Y-108599781D01*
X138245162Y-109599781D01*
X141331334Y-110680381D02*
X140998000Y-110204190D01*
X140759905Y-110680381D02*
X140759905Y-109680381D01*
X141140858Y-109680381D01*
X141236096Y-109728000D01*
X141283715Y-109775619D01*
X141331334Y-109870857D01*
X141331334Y-110013714D01*
X141283715Y-110108952D01*
X141236096Y-110156571D01*
X141140858Y-110204190D01*
X140759905Y-110204190D01*
X141902762Y-110108952D02*
X141807524Y-110061333D01*
X141759905Y-110013714D01*
X141712286Y-109918476D01*
X141712286Y-109870857D01*
X141759905Y-109775619D01*
X141807524Y-109728000D01*
X141902762Y-109680381D01*
X142093239Y-109680381D01*
X142188477Y-109728000D01*
X142236096Y-109775619D01*
X142283715Y-109870857D01*
X142283715Y-109918476D01*
X142236096Y-110013714D01*
X142188477Y-110061333D01*
X142093239Y-110108952D01*
X141902762Y-110108952D01*
X141807524Y-110156571D01*
X141759905Y-110204190D01*
X141712286Y-110299429D01*
X141712286Y-110489905D01*
X141759905Y-110585143D01*
X141807524Y-110632762D01*
X141902762Y-110680381D01*
X142093239Y-110680381D01*
X142188477Y-110632762D01*
X142236096Y-110585143D01*
X142283715Y-110489905D01*
X142283715Y-110299429D01*
X142236096Y-110204190D01*
X142188477Y-110156571D01*
X142093239Y-110108952D01*
X102272381Y-98991905D02*
X103081905Y-98991905D01*
X103177143Y-98944286D01*
X103224762Y-98896667D01*
X103272381Y-98801429D01*
X103272381Y-98610952D01*
X103224762Y-98515714D01*
X103177143Y-98468095D01*
X103081905Y-98420476D01*
X102272381Y-98420476D01*
X103272381Y-97420476D02*
X103272381Y-97991905D01*
X103272381Y-97706191D02*
X102272381Y-97706191D01*
X102415238Y-97801429D01*
X102510476Y-97896667D01*
X102558095Y-97991905D01*
M02*
